<svg width="168" height="73" viewBox="0 0 168 73" fill="none" xmlns="http://www.w3.org/2000/svg">
<g clip-path="url(#clip0_1_5134)">
<path d="M56.3684 33.1478H48.4543V47.3507H38.033V0H57.3842C68.6782 0 75.5118 6.69513 75.5118 16.3684V16.507C75.5072 27.4639 66.9882 33.1478 56.3684 33.1478ZM64.9566 16.5716C64.9566 11.9035 61.706 9.40089 56.5023 9.40089H48.4496V23.8762H56.7008C61.9092 23.8762 64.9566 20.7688 64.9566 16.7055V16.5716Z" fill="#93C01F"/>
<path d="M0 47.3552V9.2207H10.2828V47.3552H0Z" fill="#1D70B7"/>
<path d="M25.8386 9.40088V23.8901H38.0699V33.1478H25.8386V47.1522H15.4219V0H48.4496V9.40088H25.8386Z" fill="#1D70B7"/>
<path d="M87.7293 9.521V18.6495H86.1271V9.521H87.7293Z" fill="#1D70B7"/>
<path d="M91.0445 18.6492H89.47V11.7647H91.0445V12.8359C91.4878 12.1849 92.125 11.6216 93.187 11.6216C94.7338 11.6216 95.6296 12.6651 95.6296 14.2673V18.6492H94.055V14.7383C94.055 13.6717 93.5241 13.0576 92.5867 13.0576C91.6771 13.0576 91.0399 13.6948 91.0399 14.766V18.6492H91.0445Z" fill="#1D70B7"/>
<path d="M98.5939 18.6492H97.0194V11.7647H98.5939V12.8359C99.0372 12.1849 99.6743 11.6216 100.736 11.6216C102.283 11.6216 103.179 12.6651 103.179 14.2673V18.6492H101.604V14.7383C101.604 13.6717 101.073 13.0576 100.136 13.0576C99.2265 13.0576 98.5893 13.6948 98.5893 14.766V18.6492H98.5939Z" fill="#1D70B7"/>
<path d="M107.833 18.8061C105.741 18.8061 104.195 17.2039 104.195 15.2323C104.195 13.2515 105.755 11.6216 107.861 11.6216C109.966 11.6216 111.513 13.2238 111.513 15.2092C111.513 17.1762 109.953 18.8061 107.833 18.8061ZM107.833 13.0022C106.573 13.0022 105.765 13.9949 105.765 15.2046C105.765 16.4282 106.637 17.4348 107.856 17.4348C109.131 17.4348 109.939 16.4421 109.939 15.2323C109.943 14.0087 109.071 13.0022 107.833 13.0022Z" fill="#1D70B7"/>
<path d="M117.349 11.7651H119.002L116.195 18.7004H114.778L111.956 11.7651H113.646L115.493 16.8257L117.349 11.7651Z" fill="#1D70B7"/>
<path d="M124.031 18.6493V17.7997C123.564 18.3584 122.849 18.7925 121.81 18.7925C120.508 18.7925 119.367 18.0491 119.367 16.6685V16.6408C119.367 15.154 120.549 14.4245 122.147 14.4245C122.978 14.4245 123.514 14.5399 124.045 14.7107V14.5399C124.045 13.5887 123.444 13.067 122.355 13.067C121.588 13.067 121.016 13.2378 120.392 13.4964L119.963 12.2312C120.716 11.8942 121.459 11.6587 122.576 11.6587C124.603 11.6587 125.591 12.7299 125.591 14.5676V18.6493H124.031ZM124.068 15.7266C123.666 15.5696 123.103 15.4541 122.493 15.4541C121.505 15.4541 120.919 15.8605 120.919 16.5623V16.59C120.919 17.241 121.505 17.6058 122.244 17.6058C123.283 17.6058 124.063 17.0194 124.063 16.1606V15.7266H124.068Z" fill="#1D70B7"/>
<path d="M130.126 18.8061C128.085 18.8061 126.575 17.2039 126.575 15.2323C126.575 13.2654 128.085 11.6216 130.135 11.6216C131.437 11.6216 132.24 12.1064 132.878 12.8082L131.903 13.8656C131.423 13.3577 130.915 13.0068 130.121 13.0068C128.976 13.0068 128.145 13.9995 128.145 15.2092C128.145 16.4467 128.99 17.4394 130.2 17.4394C130.938 17.4394 131.488 17.0885 131.982 16.5806L132.928 17.5179C132.254 18.2705 131.465 18.8061 130.126 18.8061Z" fill="#1D70B7"/>
<path d="M133.893 10.7077V9.20703H135.583V10.7077H133.893ZM133.958 18.6495V11.765H135.533V18.6495H133.958Z" fill="#1D70B7"/>
<path d="M140.339 18.8063C138.247 18.8063 136.701 17.2041 136.701 15.2325C136.701 13.2517 138.261 11.6218 140.367 11.6218C142.472 11.6218 144.019 13.224 144.019 15.2094C144.019 17.1764 142.459 18.8063 140.339 18.8063ZM140.339 13.0023C139.079 13.0023 138.275 13.9951 138.275 15.2048C138.275 16.4284 139.143 17.435 140.367 17.435C141.641 17.435 142.445 16.4423 142.445 15.2325C142.445 14.0089 141.577 13.0023 140.339 13.0023ZM139.744 10.8922L141.119 8.75439L142.551 9.39159L140.967 10.8922H139.744Z" fill="#1D70B7"/>
<path d="M146.683 18.6492H145.109V11.7647H146.683V12.8359C147.127 12.1849 147.764 11.6216 148.83 11.6216C150.377 11.6216 151.273 12.6651 151.273 14.2673V18.6492H149.698V14.7383C149.698 13.6717 149.168 13.0576 148.23 13.0576C147.321 13.0576 146.683 13.6948 146.683 14.766V18.6492Z" fill="#1D70B7"/>
<path d="M89.0268 31.8595C89.7932 31.8595 90.3381 31.5732 90.8829 31.0376L91.8064 31.8595C91.1554 32.6444 90.2596 33.1523 88.9991 33.1523C87.009 33.1523 85.476 31.7071 85.476 29.5647C85.476 27.5838 86.8659 25.9678 88.8282 25.9678C91.0122 25.9678 92.1158 27.69 92.1158 29.6847C92.1158 29.8279 92.1019 29.9571 92.0881 30.1141H87.0459C87.2352 31.2315 88.0156 31.8595 89.0268 31.8595ZM90.5597 29.0706C90.4581 28.0548 89.8579 27.256 88.819 27.256C87.8586 27.256 87.1798 27.9994 87.0367 29.0706H90.5597Z" fill="#1D70B7"/>
<path d="M94.7707 32.9953H93.2008V26.1109H94.7707V27.1821C95.214 26.5311 95.8512 25.9678 96.9132 25.9678C98.46 25.9678 99.3557 27.0113 99.3557 28.6135V32.9953H97.7812V29.0845C97.7812 28.0133 97.2502 27.4038 96.3129 27.4038C95.4033 27.4038 94.7661 28.0456 94.7661 29.1122V32.9953H94.7707Z" fill="#1D70B7"/>
<path d="M111.098 25.3263H105.922V27.815H110.511V29.2741H105.922V32.991H104.324V23.8672H111.098V25.3263Z" fill="#1D70B7"/>
<path d="M115.008 33.1523C112.917 33.1523 111.37 31.5501 111.37 29.5785C111.37 27.5977 112.931 25.9678 115.036 25.9678C117.142 25.9678 118.689 27.57 118.689 29.5508C118.689 31.5224 117.128 33.1523 115.008 33.1523ZM115.008 27.3484C113.748 27.3484 112.94 28.3411 112.94 29.5508C112.94 30.779 113.813 31.781 115.032 31.781C116.306 31.781 117.109 30.7883 117.109 29.5785C117.114 28.3549 116.246 27.3484 115.008 27.3484Z" fill="#1D70B7"/>
<path d="M121.339 32.9953H119.764V26.1108H121.339V27.6623C121.768 26.6326 122.562 25.9262 123.772 25.9816V27.6484H123.68C122.299 27.6484 121.339 28.5488 121.339 30.3726V32.9953Z" fill="#1D70B7"/>
<path d="M132.711 25.9678C134.207 25.9678 135.117 26.9189 135.117 28.5997V32.9953H133.542V29.0845C133.542 27.9902 133.035 27.4038 132.153 27.4038C131.294 27.4038 130.684 28.004 130.684 29.1122V32.9953H129.11V29.0706C129.11 28.004 128.588 27.4038 127.72 27.4038C126.847 27.4038 126.252 28.0548 126.252 29.126V33H124.677V26.1109H126.252V27.1544C126.695 26.5403 127.291 25.9678 128.343 25.9678C129.331 25.9678 130.019 26.4526 130.384 27.1821C130.943 26.448 131.672 25.9678 132.711 25.9678Z" fill="#1D70B7"/>
<path d="M140.718 32.9955V32.1505C140.251 32.7092 139.536 33.1433 138.497 33.1433C137.195 33.1433 136.054 32.3999 136.054 31.0193V30.9916C136.054 29.5048 137.236 28.7753 138.834 28.7753C139.665 28.7753 140.201 28.8907 140.732 29.0616V28.8907C140.732 27.9395 140.131 27.4178 139.042 27.4178C138.275 27.4178 137.703 27.5886 137.079 27.8472L136.65 26.582C137.403 26.245 138.146 26.0049 139.263 26.0049C141.29 26.0049 142.278 27.0761 142.278 28.9138V32.9955H140.718ZM140.755 30.0727C140.353 29.9158 139.794 29.8003 139.18 29.8003C138.192 29.8003 137.606 30.2067 137.606 30.9085V30.9362C137.606 31.5872 138.192 31.952 138.931 31.952C139.97 31.952 140.75 31.3656 140.75 30.5068V30.0727H140.755Z" fill="#1D70B7"/>
<path d="M146.813 33.1523C144.772 33.1523 143.262 31.5501 143.262 29.5785C143.262 27.6069 144.772 25.9678 146.827 25.9678C148.129 25.9678 148.932 26.4526 149.569 27.1544L148.595 28.2118C148.115 27.7039 147.607 27.353 146.813 27.353C145.668 27.353 144.836 28.3457 144.836 29.5554C144.836 30.7929 145.681 31.7856 146.891 31.7856C147.635 31.7856 148.179 31.4347 148.673 30.9268L149.62 31.8641C148.946 32.6167 148.152 33.1523 146.813 33.1523Z" fill="#1D70B7"/>
<path d="M150.58 25.0539V23.5532H152.27V25.0539H150.58ZM150.645 32.9957V26.1112H152.22V32.9957H150.645Z" fill="#1D70B7"/>
<path d="M157.031 33.1527C154.939 33.1527 153.392 31.5505 153.392 29.5789C153.392 27.5981 154.953 25.9682 157.059 25.9682C159.164 25.9682 160.711 27.5704 160.711 29.5512C160.706 31.5228 159.146 33.1527 157.031 33.1527ZM157.031 27.3488C155.77 27.3488 154.962 28.3415 154.962 29.5512C154.962 30.7794 155.835 31.7814 157.054 31.7814C158.328 31.7814 159.136 30.7887 159.136 29.5789C159.136 28.3553 158.264 27.3488 157.031 27.3488ZM156.431 25.234L157.807 23.0962L159.238 23.7334L157.654 25.234H156.431Z" fill="#1D70B7"/>
<path d="M163.357 32.9953H161.782V26.1109H163.357V27.1821C163.8 26.5311 164.437 25.9678 165.504 25.9678C167.05 25.9678 167.946 27.0113 167.946 28.6135V32.9953H166.372V29.0845C166.372 28.0133 165.841 27.4038 164.903 27.4038C163.994 27.4038 163.357 28.0456 163.357 29.1122V32.9953Z" fill="#1D70B7"/>
<path d="M89.4423 44.4047H87.637V47.3367H86.0348V38.2129H89.6224C91.7418 38.2129 93.0808 39.4134 93.0808 41.2788C93.0854 43.3381 91.4463 44.4047 89.4423 44.4047ZM89.4978 39.672H87.6416V42.9549H89.4978C90.7075 42.9549 91.4601 42.29 91.4601 41.3111C91.4601 40.2353 90.6936 39.672 89.4978 39.672Z" fill="#1D70B7"/>
<path d="M95.3941 47.3415H93.8242V40.4571H95.3941V42.0085C95.8235 40.9788 96.6177 40.277 97.8228 40.3278V41.9946H97.7304C96.3545 41.9946 95.3894 42.895 95.3894 44.7189V47.3415H95.3941Z" fill="#1D70B7"/>
<path d="M101.803 47.4985C99.7113 47.4985 98.1645 45.8963 98.1645 43.9247C98.1645 41.9439 99.7251 40.314 101.831 40.314C103.936 40.314 105.483 41.9162 105.483 43.897C105.483 45.8686 103.922 47.4985 101.803 47.4985ZM101.803 41.6945C100.542 41.6945 99.7344 42.6873 99.7344 43.897C99.7344 45.1252 100.607 46.1272 101.826 46.1272C103.1 46.1272 103.904 45.1345 103.904 43.9247C103.908 42.6965 103.04 41.6945 101.803 41.6945Z" fill="#1D70B7"/>
<path d="M110.29 40.5077V41.8098H108.498V47.3368H106.924V41.8098H106.051V40.4939H106.924V39.9998C106.924 38.4854 107.676 37.7466 109.029 37.7466C109.574 37.7466 109.953 37.8251 110.303 37.9267V39.2564C109.994 39.1502 109.722 39.0856 109.38 39.0856C108.784 39.0856 108.47 39.4134 108.47 40.1291V40.5077H110.29Z" fill="#1D70B7"/>
<path d="M113.956 46.2057C114.722 46.2057 115.267 45.9194 115.812 45.3838L116.735 46.2057C116.084 46.986 115.189 47.4985 113.928 47.4985C111.938 47.4985 110.405 46.0533 110.405 43.9109C110.405 41.93 111.795 40.314 113.757 40.314C115.941 40.314 117.045 42.0362 117.045 44.0309C117.045 44.1741 117.031 44.3033 117.017 44.4603H111.975C112.164 45.5777 112.94 46.2057 113.956 46.2057ZM115.489 43.4168C115.382 42.401 114.787 41.6022 113.748 41.6022C112.788 41.6022 112.109 42.3456 111.966 43.4168H115.489Z" fill="#1D70B7"/>
<path d="M120.48 47.4709C119.506 47.4709 118.425 47.12 117.571 46.4412L118.273 45.37C119.016 45.9333 119.82 46.2196 120.522 46.2196C121.196 46.2196 121.588 45.9333 121.588 45.4762V45.4485C121.588 44.9129 120.859 44.7328 120.055 44.4835C119.039 44.1972 117.913 43.777 117.913 42.4611V42.4334C117.913 41.1313 118.989 40.3325 120.355 40.3325C121.214 40.3325 122.147 40.6326 122.876 41.1128L122.253 42.2349C121.588 41.8332 120.886 41.5838 120.314 41.5838C119.704 41.5838 119.353 41.8701 119.353 42.2764V42.3041C119.353 42.7982 120.097 43.0106 120.9 43.2691C121.902 43.5831 123.033 44.0402 123.033 45.2777V45.3054C123.029 46.7506 121.911 47.4709 120.48 47.4709Z" fill="#1D70B7"/>
<path d="M124.146 39.4V37.8994H125.836V39.4H124.146ZM124.211 47.3419V40.4574H125.785V47.3419H124.211Z" fill="#1D70B7"/>
<path d="M130.592 47.4985C128.5 47.4985 126.954 45.8963 126.954 43.9247C126.954 41.9439 128.514 40.314 130.62 40.314C132.725 40.314 134.272 41.9162 134.272 43.897C134.272 45.8686 132.711 47.4985 130.592 47.4985ZM130.592 41.6945C129.331 41.6945 128.523 42.6873 128.523 43.897C128.523 45.1252 129.396 46.1272 130.615 46.1272C131.889 46.1272 132.693 45.1345 132.693 43.9247C132.697 42.6965 131.829 41.6945 130.592 41.6945Z" fill="#1D70B7"/>
<path d="M136.936 47.3415H135.362V40.4571H136.936V41.5237C137.379 40.8727 138.017 40.314 139.079 40.314C140.625 40.314 141.521 41.3575 141.521 42.9597V47.3415H139.947V43.4307C139.947 42.3594 139.416 41.75 138.478 41.75C137.569 41.75 136.932 42.3918 136.932 43.4584V47.3415H136.936Z" fill="#1D70B7"/>
<path d="M147.113 47.3417V46.4921C146.646 47.0508 145.931 47.4848 144.892 47.4848C143.59 47.4848 142.449 46.7415 142.449 45.3609V45.3332C142.449 43.8464 143.631 43.1169 145.229 43.1169C146.06 43.1169 146.596 43.2323 147.127 43.4031V43.2323C147.127 42.2811 146.526 41.7594 145.437 41.7594C144.67 41.7594 144.098 41.9302 143.474 42.1888L143.045 40.9236C143.798 40.5866 144.541 40.3511 145.658 40.3511C147.685 40.3511 148.673 41.4223 148.673 43.26V47.3417H147.113ZM147.15 44.4189C146.748 44.262 146.189 44.1465 145.575 44.1465C144.587 44.1465 144.005 44.5528 144.005 45.2547V45.2824C144.005 45.9334 144.587 46.2982 145.331 46.2982C146.369 46.2982 147.15 45.7118 147.15 44.853V44.4189Z" fill="#1D70B7"/>
<path d="M150.114 47.3417V37.8208H151.689V47.3371H150.114V47.3417Z" fill="#1D70B7"/>
<path d="M0.41556 0.0507812H0V0.461724V0.914222L0.868058 0.0507812H0.41556Z" fill="#93C01F"/>
<path d="M2.47027 0.0507812H2.01777L0 2.06394V2.52105V2.97355L2.92277 0.0507812H2.47027Z" fill="#93C01F"/>
<path d="M4.53422 0.0507812H4.0771L0 4.12788V4.58038V5.0375L4.98672 0.0507812H4.53422Z" fill="#93C01F"/>
<path d="M6.58893 0.0507812H6.13643L0 6.18721V6.63971V7.09221L7.04605 0.0507812H6.58893Z" fill="#93C01F"/>
<path d="M8.65288 0.0507812H8.19576L0 8.24654V8.69904V9.15154L9.10538 0.0507812H8.65288Z" fill="#93C01F"/>
<path d="M10.2551 0.0507812L1.08969 9.21618H1.54219H1.99931L10.2736 0.941926V0.48481V0.0507812H10.2551Z" fill="#93C01F"/>
<path d="M3.14902 9.21634H3.60152H4.05863L10.2736 3.00141V2.5443V2.0918L3.14902 9.21634Z" fill="#93C01F"/>
<path d="M5.20835 9.21609H5.66085H6.11797L10.2736 5.06049V4.60338V4.15088L5.20835 9.21609Z" fill="#93C01F"/>
<path d="M7.26767 9.21584H7.72017H8.17728L10.2736 7.11958V6.66246V6.20996L7.26767 9.21584Z" fill="#93C01F"/>
<path d="M9.32702 9.21608H9.78413H10.2366L10.2736 9.17915V8.72665V8.26953L9.32702 9.21608Z" fill="#93C01F"/>
<path d="M39.8706 57.8876H0.249336V57.2827H39.8706V57.8876ZM42.8673 70.7515H43.7123V67.921H45.7439V67.2007H43.7123V65.2153H45.7901L46.0348 64.495H42.8627V70.7515H42.8673ZM103.701 66.2634H104.573L105.815 69.6803H105.834L107.039 66.2634H107.902L106.148 70.7838H105.474L103.701 66.2634ZM8.50512 69.8973C8.50512 69.8973 8.29273 69.7587 7.91872 69.5925C7.29076 69.3062 6.21493 68.9322 4.82511 68.9322C3.45838 68.9322 2.38716 69.297 1.76382 69.5925C1.3575 69.7726 1.13586 69.9296 1.13586 69.9296C1.07584 69.8188 1.02043 69.7033 0.974257 69.5925C0.761859 69.1169 0.627957 68.6044 0.600253 68.0596H9.04997C9.01303 68.6044 8.87451 69.1169 8.66211 69.5925C8.61132 69.6895 8.56515 69.8003 8.50512 69.8973ZM7.0599 71.4579C7.0599 71.4579 6.33959 70.3498 4.82511 70.3498C3.38912 70.3498 2.60879 71.4764 2.60879 71.4764C2.16553 71.1994 1.77305 70.8346 1.46369 70.419C1.46369 70.419 2.46565 69.768 4.00784 69.5879C4.26641 69.551 4.53884 69.5371 4.82511 69.5371C5.116 69.5371 5.39304 69.5463 5.65161 69.5879C7.2215 69.768 8.15421 70.4283 8.15421 70.4283C7.8587 70.8392 7.48469 71.1855 7.0599 71.4579ZM4.81588 72.1136C4.22024 72.1136 3.63846 71.9843 3.13055 71.758C3.13055 71.758 3.65231 70.9362 4.82511 70.9362C5.98868 70.9362 6.51967 71.7488 6.51967 71.7488C6.00253 71.9843 5.42075 72.1136 4.81588 72.1136ZM1.11739 65.6678C1.11739 65.6678 2.65958 66.619 4.82511 66.619C6.99064 66.619 8.48665 65.6493 8.48665 65.6493C8.72675 66.0741 8.90221 66.5497 8.98532 67.0438C9.01303 67.1823 9.02226 67.3208 9.0315 67.4593H0.595636C0.60487 67.3208 0.614105 67.1823 0.641809 67.0438C0.720304 66.5451 0.886527 66.0833 1.11739 65.6678ZM2.57185 64.084C2.57185 64.084 3.28292 65.1737 4.82511 65.1737C6.35806 65.1737 6.99987 64.084 6.99987 64.084C7.44314 64.3611 7.84946 64.6889 8.15421 65.1137C8.15421 65.1137 6.95832 66.0233 4.82049 66.0233C2.67343 66.0233 1.44061 65.1553 1.44061 65.1553C1.75459 64.7305 2.13782 64.3703 2.57185 64.084ZM4.81588 63.433C5.40228 63.433 5.96097 63.5531 6.4735 63.7701C6.4735 63.7701 6.09026 64.5919 4.82511 64.5919C3.56458 64.5919 3.08899 63.8116 3.08899 63.8116C3.61999 63.5623 4.20177 63.433 4.81588 63.433ZM9.58558 67.0391C9.23928 64.6566 7.23536 62.8281 4.81588 62.8281C2.39639 62.8281 0.392473 64.6566 0.0461733 67.0391C0.0184693 67.2746 0 67.524 0 67.7687C0 68.4105 0.115433 69.0246 0.337065 69.5879C1.0389 71.4164 2.78425 72.7138 4.81588 72.7138C6.8475 72.7138 8.59285 71.4164 9.29469 69.5879C9.51632 69.0246 9.63175 68.4105 9.63175 67.7687C9.63175 67.524 9.61328 67.2792 9.58558 67.0391ZM14.3784 68.5074H13.9443V70.7607H13.1178V64.4996H14.4707C15.7589 64.4996 16.5716 65.2107 16.5716 66.4666C16.5716 67.4732 15.9436 68.5074 14.3784 68.5074ZM14.3968 65.2476H13.9443V67.7825H14.443C15.3249 67.7825 15.7128 67.2515 15.7128 66.4712C15.7082 65.7509 15.2649 65.2476 14.3968 65.2476ZM18.3308 70.853C17.7305 70.853 17.4858 70.4744 17.4858 69.9711V64.0332H18.3031V69.6018C18.3031 69.9896 18.3954 70.0958 18.6448 70.0958C18.7002 70.0958 18.7833 70.0958 18.9034 70.0589L19.0049 70.6776C18.7648 70.8069 18.5617 70.853 18.3308 70.853ZM22.3663 70.7607L22.1909 70.3313C21.9139 70.5991 21.4983 70.853 20.8657 70.853C20.1269 70.853 19.4944 70.3221 19.4944 69.4586C19.4944 68.5582 20.1316 68.0226 21.2813 67.9857L22.1355 67.958V67.7871C22.1355 67.0945 21.7476 66.8452 21.2259 66.8452C20.6903 66.8452 20.3255 67.053 20.0762 67.2331L19.7714 66.6651C20.3163 66.268 20.8103 66.1526 21.3736 66.1526C22.2925 66.1526 22.9574 66.5497 22.9574 67.7133V69.2231C22.9574 70.2851 22.9851 70.5991 23.0497 70.7607H22.3663ZM22.1355 68.6321L21.3413 68.6598C20.6164 68.6875 20.3209 68.9369 20.3209 69.3894C20.3209 69.8188 20.5887 70.1512 21.1243 70.1512C21.6322 70.1512 21.9508 69.9019 22.1355 69.7126V68.6321ZM26.896 70.7607V68.0319C26.896 67.5101 26.8128 66.9191 26.1756 66.9191C25.6954 66.9191 25.2383 67.2423 24.8966 67.547V70.7607H24.0794V66.268H24.7627L24.8643 66.7806C25.363 66.4019 25.8109 66.1526 26.4204 66.1526C27.0576 66.1526 27.7178 66.6005 27.7178 67.7502V70.7607H26.896ZM29.5001 68.6875C29.5001 69.4863 29.9988 70.142 30.8807 70.142C31.2593 70.142 31.6472 70.0081 31.9473 69.828L32.1782 70.3867C31.7996 70.6822 31.2316 70.853 30.7237 70.853C29.297 70.853 28.6413 69.7033 28.6413 68.4474C28.6413 67.1546 29.3708 66.148 30.4929 66.148C31.6426 66.148 32.3075 67.0715 32.3075 68.4659V68.6829H29.5001V68.6875ZM30.479 66.836C29.8695 66.836 29.4863 67.3854 29.4863 68.0319H31.4302C31.4348 67.4547 31.1208 66.836 30.479 66.836ZM34.5561 70.853C33.8727 70.853 33.5634 70.456 33.5634 69.8649V66.9376H32.8338V66.2634H33.5634V65.2568L34.3899 64.989V66.2634H35.7428L35.4749 66.9376H34.3899V69.5787C34.3899 69.9481 34.5284 70.1189 34.8147 70.1189C35.1102 70.1189 35.3965 69.9573 35.5765 69.8234L35.8166 70.3913C35.4426 70.673 34.9624 70.853 34.5561 70.853ZM39.1873 70.7607L39.0118 70.3313C38.7348 70.5991 38.3192 70.853 37.6867 70.853C36.9479 70.853 36.3153 70.3221 36.3153 69.4586C36.3153 68.5582 36.9525 68.0226 38.1022 67.9857L38.9564 67.958V67.7871C38.9564 67.0945 38.5686 66.8452 38.0514 66.8452C37.5158 66.8452 37.151 67.053 36.9017 67.2331L36.597 66.6651C37.1418 66.268 37.6359 66.1526 38.1992 66.1526C39.118 66.1526 39.7829 66.5497 39.7829 67.7133V69.2231C39.7829 70.2851 39.8106 70.5991 39.8753 70.7607H39.1873ZM38.9518 68.6321L38.1576 68.6598C37.4327 68.6875 37.1372 68.9369 37.1372 69.3894C37.1372 69.8188 37.405 70.1512 37.9452 70.1512C38.4531 70.1512 38.7671 69.9019 38.9564 69.7126V68.6321H38.9518ZM49.8903 68.5028C49.8903 67.5332 49.4147 66.8406 48.6297 66.8406C47.8309 66.8406 47.36 67.5332 47.36 68.5028C47.36 69.4632 47.8355 70.1558 48.6205 70.1558C49.4193 70.1558 49.8903 69.4632 49.8903 68.5028ZM46.4919 68.5028C46.4919 67.173 47.3369 66.148 48.6297 66.148C49.8995 66.148 50.7537 67.173 50.7537 68.5028C50.7537 69.8234 49.9087 70.8484 48.6159 70.8484C47.3369 70.8484 46.4919 69.8234 46.4919 68.5028ZM51.6171 66.2634H52.319L52.4159 66.8129C52.8915 66.3096 53.2609 66.148 53.6765 66.148C53.8658 66.148 54.0736 66.1942 54.2075 66.2819L53.912 67.0207C53.7688 66.9468 53.6257 66.9052 53.4733 66.9052C53.1593 66.9052 52.8638 67.0761 52.4483 67.4824V70.7469H51.6125V66.2634H51.6171ZM54.7015 66.2634H55.4033L55.5003 66.8129C55.9667 66.4343 56.4792 66.148 57.0471 66.148C57.5689 66.148 57.9983 66.3927 58.2153 66.896C58.7463 66.4204 59.3142 66.148 59.8683 66.148C60.6071 66.148 61.2443 66.6051 61.2443 67.741V70.7515H60.4085V67.9903C60.4085 67.3716 60.2746 66.8914 59.6605 66.8914C59.2127 66.8914 58.7786 67.1592 58.3908 67.4916C58.3908 67.5655 58.4 67.6532 58.4 67.7271V70.7561H57.5643V68.0042C57.5643 67.3762 57.4304 66.8914 56.8163 66.8914C56.3684 66.8914 55.9343 67.1592 55.5465 67.4916V70.7561H54.7107V66.2634H54.7015ZM64.0701 68.5998C63.7099 68.609 63.4698 68.6644 63.2805 68.7614C63.045 68.8953 62.9296 69.1216 62.9296 69.3986C62.9296 69.8649 63.2343 70.1651 63.7099 70.1651C64.2317 70.1651 64.6011 69.8511 64.7996 69.6525V68.5721L64.0701 68.5998ZM64.8596 70.2666C64.518 70.5899 64.0793 70.8438 63.5206 70.8438C62.6941 70.8438 62.08 70.3036 62.08 69.4401C62.08 68.8399 62.3848 68.4428 62.8372 68.2258C63.1512 68.0734 63.5114 68.018 63.9685 67.9995L64.8042 67.9718V67.7364C64.8042 67.0992 64.4164 66.8267 63.8761 66.8267C63.3636 66.8267 62.9758 66.9883 62.6526 67.1777L62.357 66.6005C62.8788 66.2865 63.4467 66.1526 63.9777 66.1526C64.9935 66.1526 65.64 66.6374 65.64 67.7179V69.3524C65.64 70.1189 65.6677 70.5298 65.7277 70.7561H65.0074L64.8596 70.2666ZM66.4803 68.549C66.4803 67.21 67.3899 66.148 68.7567 66.148C69.2415 66.148 69.6386 66.2819 69.9064 66.4343V67.1638C69.6016 66.9653 69.26 66.8406 68.8259 66.8406C67.9071 66.8406 67.3438 67.5517 67.3438 68.5028C67.3438 69.5556 67.9025 70.1558 68.7659 70.1558C69.223 70.1558 69.5462 70.0035 69.8371 69.8419L70.0818 70.4283C69.7494 70.6545 69.2184 70.8438 68.6505 70.8438C67.2468 70.8484 66.4803 69.8234 66.4803 68.549ZM70.7975 66.2634H71.6333V70.7515H70.7975V66.2634ZM70.6867 64.7997C70.6867 64.5042 70.9037 64.2687 71.2177 64.2687C71.5409 64.2687 71.7672 64.495 71.7672 64.7997C71.7672 65.1045 71.5317 65.34 71.2177 65.34C70.9037 65.3446 70.6867 65.1045 70.6867 64.7997ZM74.87 64.3195H75.8027L74.9577 65.714H74.3206L74.87 64.3195ZM75.9782 68.5028C75.9782 67.5332 75.5026 66.8406 74.7176 66.8406C73.9188 66.8406 73.4479 67.5332 73.4479 68.5028C73.4479 69.4632 73.9235 70.1558 74.7084 70.1558C75.5072 70.1558 75.9782 69.4632 75.9782 68.5028ZM72.5844 68.5028C72.5844 67.173 73.4294 66.148 74.7223 66.148C75.992 66.148 76.8462 67.173 76.8462 68.5028C76.8462 69.8234 76.0013 70.8484 74.7084 70.8484C73.4248 70.8484 72.5844 69.8234 72.5844 68.5028ZM77.705 66.2634H78.4069L78.5131 66.8129C78.9979 66.4158 79.5012 66.148 80.0691 66.148C80.7802 66.148 81.4359 66.5636 81.4359 67.741V70.7515H80.6001V68.018C80.6001 67.3808 80.4477 66.8868 79.829 66.8868C79.3719 66.8868 78.9379 67.1546 78.5362 67.4962V70.7515H77.7004V66.2634H77.705ZM86.7689 71.0377C86.1502 72.7554 85.4483 73.0001 84.6911 73.0001C84.3494 73.0001 84.0724 72.9447 83.8276 72.8293L84.0262 72.1551C84.2155 72.2383 84.4233 72.2983 84.6726 72.2983C85.2313 72.2983 85.6884 71.9104 86.0393 70.7607L84.0446 66.2634H84.945L86.418 69.7449H86.4364L87.5861 66.2634H88.4588L86.7689 71.0377ZM91.4093 69.5556C91.2939 69.2508 91.2384 68.8907 91.2384 68.4844V64.4996H92.0834V68.4197C92.0834 68.7429 92.1204 69.0384 92.2266 69.2739C92.4436 69.8234 92.9192 70.1281 93.6487 70.1281C94.3875 70.1281 94.8631 69.8234 95.0801 69.2739C95.177 69.0384 95.214 68.7429 95.214 68.392V64.4996H96.0589V68.4844C96.0589 68.8999 96.0035 69.2739 95.8696 69.574C95.5372 70.4098 94.7707 70.8438 93.6487 70.8438C92.5036 70.8484 91.7417 70.4006 91.4093 69.5556ZM97.3148 66.2634H98.0167L98.1229 66.8129C98.6077 66.4158 99.111 66.148 99.6789 66.148C100.39 66.148 101.046 66.5636 101.046 67.741V70.7515H100.21V68.018C100.21 67.3808 100.058 66.8868 99.4388 66.8868C98.9817 66.8868 98.5477 67.1546 98.146 67.4962V70.7515H97.3102V66.2634H97.3148ZM102.2 66.2634H103.036V70.7515H102.2V66.2634ZM102.089 64.7997C102.089 64.5042 102.306 64.2687 102.62 64.2687C102.943 64.2687 103.17 64.495 103.17 64.7997C103.17 65.1045 102.934 65.34 102.62 65.34C102.306 65.3446 102.089 65.1045 102.089 64.7997ZM111.075 68.0688C111.065 67.4408 110.761 66.8175 110.086 66.8175C109.44 66.8175 109.052 67.3854 109.043 68.0688H111.075ZM109.043 68.6921C109.052 69.5371 109.574 70.1651 110.456 70.1651C110.894 70.1651 111.264 70.0312 111.578 69.8603L111.836 70.4375C111.421 70.7053 110.876 70.8438 110.363 70.8438C108.872 70.8438 108.189 69.7541 108.189 68.4705C108.189 67.1038 108.937 66.1434 110.086 66.1434C111.264 66.1434 111.938 67.0438 111.938 68.4797V68.6875H109.043V68.6921ZM112.811 66.2634H113.512L113.609 66.8129C114.085 66.3096 114.454 66.148 114.87 66.148C115.059 66.148 115.267 66.1942 115.401 66.2819L115.105 67.0207C114.962 66.9468 114.819 66.9052 114.667 66.9052C114.353 66.9052 114.057 67.0761 113.642 67.4824V70.7469H112.806V66.2634H112.811ZM115.669 69.8234C115.955 69.9942 116.343 70.1651 116.828 70.1651C117.331 70.1651 117.737 69.985 117.737 69.5186C117.737 68.609 115.632 68.9092 115.632 67.4224C115.632 66.7113 116.19 66.1526 117.206 66.1526C117.654 66.1526 118.061 66.2496 118.384 66.3696V67.0899C118.061 66.9468 117.691 66.836 117.243 66.836C116.828 66.836 116.454 66.9606 116.454 67.3854C116.454 68.2951 118.559 67.9718 118.559 69.5094C118.559 70.4283 117.779 70.8484 116.851 70.8484C116.223 70.8484 115.71 70.6499 115.396 70.4513L115.669 69.8234ZM119.473 66.2634H120.309V70.7515H119.473V66.2634ZM119.358 64.7997C119.358 64.5042 119.575 64.2687 119.889 64.2687C120.212 64.2687 120.438 64.495 120.438 64.7997C120.438 65.1045 120.203 65.34 119.889 65.34C119.58 65.3446 119.358 65.1045 119.358 64.7997ZM124.331 70.0312V66.956C124.123 66.8914 123.961 66.8498 123.675 66.8498C122.812 66.8498 122.119 67.4593 122.119 68.5398C122.119 69.5279 122.719 70.1327 123.684 70.1327C123.897 70.1374 124.165 70.1097 124.331 70.0312ZM121.256 68.5582C121.256 67.1176 122.29 66.148 123.62 66.148C123.855 66.148 124.105 66.1665 124.331 66.2311V64.0286H125.167V70.5298C124.816 70.7191 124.239 70.8438 123.666 70.8438C122.332 70.8484 121.256 70.0589 121.256 68.5582ZM128.052 68.5998C127.692 68.609 127.452 68.6644 127.263 68.7614C127.027 68.8953 126.912 69.1216 126.912 69.3986C126.912 69.8649 127.217 70.1651 127.692 70.1651C128.214 70.1651 128.583 69.8511 128.782 69.6525V68.5721L128.052 68.5998ZM128.842 70.2666C128.5 70.5899 128.062 70.8438 127.503 70.8438C126.676 70.8438 126.062 70.3036 126.062 69.4401C126.062 68.8399 126.367 68.4428 126.82 68.2258C127.134 68.0734 127.494 68.018 127.951 67.9995L128.787 67.9718V67.7364C128.787 67.0992 128.399 66.8267 127.858 66.8267C127.346 66.8267 126.958 66.9883 126.635 67.1777L126.339 66.6005C126.861 66.2865 127.429 66.1526 127.965 66.1526C128.981 66.1526 129.627 66.6374 129.627 67.7179V69.3524C129.627 70.1189 129.655 70.5298 129.71 70.7561H128.99L128.842 70.2666ZM133.538 70.0312V66.956C133.33 66.8914 133.168 66.8498 132.882 66.8498C132.019 66.8498 131.326 67.4593 131.326 68.5398C131.326 69.5279 131.926 70.1327 132.891 70.1327C133.104 70.1374 133.367 70.1097 133.538 70.0312ZM130.463 68.5582C130.463 67.1176 131.497 66.148 132.827 66.148C133.062 66.148 133.312 66.1665 133.538 66.2311V64.0286H134.374V70.5298C134.023 70.7191 133.445 70.8438 132.873 70.8438C131.538 70.8484 130.463 70.0589 130.463 68.5582ZM138.22 68.0688C138.211 67.4408 137.906 66.8175 137.232 66.8175C136.585 66.8175 136.197 67.3854 136.188 68.0688H138.22ZM136.188 68.6921C136.197 69.5371 136.719 70.1651 137.601 70.1651C138.04 70.1651 138.409 70.0312 138.723 69.8603L138.977 70.4375C138.561 70.7053 138.017 70.8438 137.504 70.8438C136.013 70.8438 135.329 69.7541 135.329 68.4705C135.329 67.1038 136.077 66.1434 137.227 66.1434C138.404 66.1434 139.079 67.0438 139.079 68.4797V68.6875H136.188V68.6921ZM139.859 69.8234C140.145 69.9942 140.533 70.1651 141.018 70.1651C141.521 70.1651 141.928 69.985 141.928 69.5186C141.928 68.609 139.822 68.9092 139.822 67.4224C139.822 66.7113 140.381 66.1526 141.397 66.1526C141.844 66.1526 142.251 66.2496 142.574 66.3696V67.0899C142.251 66.9468 141.881 66.836 141.433 66.836C141.018 66.836 140.644 66.9606 140.644 67.3854C140.644 68.2951 142.749 67.9718 142.749 69.5094C142.749 70.4283 141.969 70.8484 141.041 70.8484C140.413 70.8484 139.9 70.6499 139.587 70.4513L139.859 69.8234Z" fill="#404040"/>
</g>
<defs>
<clipPath id="clip0_1_5134">
<rect width="167.946" height="73" fill="white"/>
</clipPath>
</defs>
</svg>
