<svg width="148" height="42" viewBox="0 0 148 42" fill="none" xmlns="http://www.w3.org/2000/svg">
<g id="IFP logo-dark">
<g id="Group 3">
<mask id="mask0_1_9043" style="mask-type:alpha" maskUnits="userSpaceOnUse" x="33" y="0" width="34" height="42">
<path id="Clip 2" fill-rule="evenodd" clip-rule="evenodd" d="M33.5146 0H66.5401V41.874H33.5146V0Z" fill="white"/>
</mask>
<g mask="url(#mask0_1_9043)">
<path id="Fill 1" fill-rule="evenodd" clip-rule="evenodd" d="M57.2419 14.6545C57.2419 10.5281 54.3792 8.31299 49.7901 8.31299H42.6953V21.1147H49.9677C54.5594 21.1147 57.2419 18.3654 57.2419 14.774V14.6545ZM49.6711 29.3126H42.6958V41.8741H33.5146V0H50.5661C60.5187 0 66.5401 5.92155 66.5401 14.4755V14.5973C66.5401 24.2873 59.0302 29.3126 49.6711 29.3126Z" fill="#93C01F"/>
</g>
</g>
<mask id="mask1_1_9043" style="mask-type:alpha" maskUnits="userSpaceOnUse" x="0" y="0" width="148" height="42">
<path id="Clip 5" fill-rule="evenodd" clip-rule="evenodd" d="M0 42H148V0H0V42Z" fill="white"/>
</mask>
<g mask="url(#mask1_1_9043)">
<path id="Fill 4" fill-rule="evenodd" clip-rule="evenodd" d="M0 41.8733H9.06019V8.15137H0V41.8733Z" fill="#1D70B7"/>
<path id="Fill 6" fill-rule="evenodd" clip-rule="evenodd" d="M22.7713 8.31223V21.1259H33.5508V29.3115H22.7713V41.6933H13.5908V0H42.6969V8.31223H22.7713Z" fill="#1D70B7"/>
<path id="Fill 7" fill-rule="evenodd" clip-rule="evenodd" d="M75.8984 16.4914H77.3085V8.4209H75.8984V16.4914Z" fill="#1D70B7"/>
<path id="Fill 8" fill-rule="evenodd" clip-rule="evenodd" d="M80.2298 16.4909H78.8438V10.4033H80.2298V11.3486C80.6194 10.7724 81.1807 10.2764 82.1194 10.2764C83.4824 10.2764 84.2731 11.1986 84.2731 12.6165V16.4909H82.8871V13.032C82.8871 12.0871 82.4172 11.5447 81.5928 11.5447C80.7907 11.5447 80.2298 12.1094 80.2298 13.0547V16.4909Z" fill="#1D70B7"/>
<path id="Fill 9" fill-rule="evenodd" clip-rule="evenodd" d="M86.8841 16.4909H85.498V10.4033H86.8841V11.3486C87.2737 10.7724 87.835 10.2764 88.7737 10.2764C90.1375 10.2764 90.9282 11.1986 90.9282 12.6165V16.4909H89.5421V13.032C89.5421 12.0871 89.0722 11.5447 88.2471 11.5447C87.4457 11.5447 86.8841 12.1094 86.8841 13.0547V16.4909Z" fill="#1D70B7"/>
<path id="Fill 10" fill-rule="evenodd" clip-rule="evenodd" d="M95.0289 11.4986C93.9174 11.4986 93.207 12.3745 93.207 13.4475C93.207 14.5309 93.9744 15.419 95.0515 15.419C96.1744 15.419 96.8848 14.5428 96.8848 13.4701C96.8848 12.3867 96.1163 11.4986 95.0289 11.4986ZM95.0282 16.6293C93.1834 16.6293 91.8203 15.2111 91.8203 13.4701C91.8203 11.718 93.1949 10.2764 95.0508 10.2764C96.9063 10.2764 98.2694 11.6943 98.2694 13.4475C98.2694 15.188 96.8949 16.6293 95.0282 16.6293Z" fill="#1D70B7"/>
<path id="Fill 11" fill-rule="evenodd" clip-rule="evenodd" d="M103.412 10.4033H104.867L102.392 16.5372H101.144L98.6582 10.4033H100.148L101.774 14.8769L103.412 10.4033Z" fill="#1D70B7"/>
<path id="Fill 12" fill-rule="evenodd" clip-rule="evenodd" d="M109.333 13.9085C108.977 13.7707 108.484 13.6664 107.947 13.6664C107.076 13.6664 106.561 14.0243 106.561 14.6466V14.67C106.561 15.2466 107.076 15.5692 107.729 15.5692C108.645 15.5692 109.333 15.0505 109.333 14.2891V13.9085ZM109.297 16.4915V15.7419C108.885 16.2375 108.255 16.6181 107.338 16.6181C106.193 16.6181 105.186 15.9613 105.186 14.739V14.7157C105.186 13.4017 106.228 12.756 107.637 12.756C108.369 12.756 108.839 12.8596 109.31 13.01V12.8596C109.31 12.0183 108.782 11.5568 107.82 11.5568C107.144 11.5568 106.64 11.7061 106.09 11.937L105.712 10.8191C106.377 10.5191 107.03 10.3115 108.015 10.3115C109.802 10.3115 110.672 11.2568 110.672 12.883V16.4915H109.297Z" fill="#1D70B7"/>
<path id="Fill 13" fill-rule="evenodd" clip-rule="evenodd" d="M114.671 16.6293C112.872 16.6293 111.543 15.2111 111.543 13.4698C111.543 11.7296 112.872 10.2764 114.681 10.2764C115.827 10.2764 116.537 10.703 117.099 11.3256L116.239 12.259C115.816 11.8101 115.369 11.4986 114.671 11.4986C113.662 11.4986 112.929 12.3745 112.929 13.4475C112.929 14.5428 113.674 15.4186 114.739 15.4186C115.392 15.4186 115.873 15.1071 116.308 14.6571L117.144 15.488C116.549 16.1567 115.85 16.6293 114.671 16.6293Z" fill="#1D70B7"/>
<path id="Fill 14" fill-rule="evenodd" clip-rule="evenodd" d="M118.049 16.4903H119.435V10.4028H118.049V16.4903ZM117.991 9.46866H119.48V8.14355H117.991V9.46866Z" fill="#1D70B7"/>
<path id="Fill 15" fill-rule="evenodd" clip-rule="evenodd" d="M123.146 9.63117L124.359 7.74023L125.619 8.30495L124.221 9.63117H123.146ZM123.672 11.4987C122.562 11.4987 121.852 12.3749 121.852 13.4476C121.852 14.531 122.618 15.4191 123.696 15.4191C124.817 15.4191 125.528 14.5428 125.528 13.4702C125.528 12.3868 124.761 11.4987 123.672 11.4987ZM123.671 16.6298C121.828 16.6298 120.465 15.2111 120.465 13.4702C120.465 11.7181 121.839 10.2765 123.695 10.2765C125.55 10.2765 126.913 11.6947 126.913 13.4476C126.913 15.1881 125.539 16.6298 123.671 16.6298Z" fill="#1D70B7"/>
<path id="Fill 16" fill-rule="evenodd" clip-rule="evenodd" d="M129.261 16.4909H127.875V10.4033H129.261V11.3486C129.651 10.7724 130.212 10.2764 131.151 10.2764C132.514 10.2764 133.304 11.1986 133.304 12.6165V16.4909H131.918V13.032C131.918 12.0871 131.448 11.5447 130.624 11.5447C129.823 11.5447 129.261 12.1094 129.261 13.0547V16.4909Z" fill="#1D70B7"/>
<path id="Fill 17" fill-rule="evenodd" clip-rule="evenodd" d="M79.8051 25.7061C79.7141 24.8068 79.1872 24.1036 78.2711 24.1036C77.4234 24.1036 76.8277 24.7611 76.7012 25.7061H79.8051ZM78.4542 28.1732C79.1298 28.1732 79.6104 27.92 80.0914 27.4477L80.9054 28.1732C80.3323 28.8656 79.5416 29.3153 78.4301 29.3153C76.6785 29.3153 75.3262 28.0351 75.3262 26.1442C75.3262 24.3921 76.552 22.9619 78.2821 22.9619C80.2057 22.9619 81.1799 24.4842 81.1799 26.2477C81.1799 26.3747 81.1685 26.4898 81.1566 26.6283H76.7126C76.8728 27.6196 77.5602 28.1732 78.4542 28.1732Z" fill="#1D70B7"/>
<path id="Fill 18" fill-rule="evenodd" clip-rule="evenodd" d="M83.5161 29.1764H82.1309V23.0889H83.5161V24.0342C83.9065 23.4579 84.467 22.9619 85.4057 22.9619C86.7695 22.9619 87.5602 23.8849 87.5602 25.3025V29.1764H86.1742V25.7183C86.1742 24.7719 85.7043 24.2302 84.88 24.2302C84.0778 24.2302 83.5161 24.7957 83.5161 25.7406V29.1764Z" fill="#1D70B7"/>
<path id="Fill 19" fill-rule="evenodd" clip-rule="evenodd" d="M97.9021 22.3964H93.3429V24.5988H97.3859V25.8894H93.3429V29.176H91.9336V21.1055H97.9021V22.3964Z" fill="#1D70B7"/>
<path id="Fill 20" fill-rule="evenodd" clip-rule="evenodd" d="M101.348 24.1845C100.238 24.1845 99.5273 25.0604 99.5273 26.1323C99.5273 27.2164 100.295 28.1041 101.372 28.1041C102.494 28.1041 103.204 27.2279 103.204 26.1564C103.204 25.0723 102.437 24.1845 101.348 24.1845ZM101.349 29.3149C99.5057 29.3149 98.1426 27.8966 98.1426 26.1564C98.1426 24.4036 99.5171 22.9619 101.373 22.9619C103.228 22.9619 104.591 24.3802 104.591 26.1323C104.591 27.8743 103.216 29.3149 101.349 29.3149Z" fill="#1D70B7"/>
<path id="Fill 21" fill-rule="evenodd" clip-rule="evenodd" d="M106.927 29.1761H105.541V23.0886H106.927V24.4605C107.305 23.5497 108.004 22.9267 109.07 22.9731V24.449H108.989C107.775 24.449 106.927 25.245 106.927 26.8586V29.1761Z" fill="#1D70B7"/>
<path id="Fill 22" fill-rule="evenodd" clip-rule="evenodd" d="M116.95 22.9619C118.268 22.9619 119.069 23.804 119.069 25.291V29.1764H117.683V25.7183C117.683 24.7493 117.236 24.2302 116.457 24.2302C115.702 24.2302 115.163 24.7611 115.163 25.7406V29.1764H113.777V25.706C113.777 24.7611 113.319 24.2302 112.551 24.2302C111.784 24.2302 111.257 24.8068 111.257 25.7525V29.1764H109.871V23.0889H111.257V24.0112C111.647 23.4695 112.174 22.9619 113.102 22.9619C113.971 22.9619 114.579 23.3889 114.9 24.0345C115.392 23.3889 116.034 22.9619 116.95 22.9619Z" fill="#1D70B7"/>
<path id="Fill 23" fill-rule="evenodd" clip-rule="evenodd" d="M124.04 26.5942C123.684 26.4557 123.192 26.3521 122.654 26.3521C121.783 26.3521 121.268 26.7096 121.268 27.3315V27.3549C121.268 27.9315 121.783 28.2542 122.436 28.2542C123.353 28.2542 124.04 27.7348 124.04 26.974V26.5942ZM124.004 29.1764V28.4272C123.592 28.9232 122.962 29.3034 122.046 29.3034C120.901 29.3034 119.893 28.6462 119.893 27.4236V27.4013C119.893 26.0874 120.935 25.4413 122.344 25.4413C123.077 25.4413 123.547 25.5449 124.017 25.6942V25.5449C124.017 24.7029 123.489 24.2425 122.527 24.2425C121.852 24.2425 121.347 24.3917 120.797 24.6223L120.419 23.5044C121.084 23.2048 121.737 22.9961 122.722 22.9961C124.509 22.9961 125.379 23.9421 125.379 25.5672V29.1764H124.004Z" fill="#1D70B7"/>
<path id="Fill 24" fill-rule="evenodd" clip-rule="evenodd" d="M129.377 29.3149C127.578 29.3149 126.249 27.8966 126.249 26.156C126.249 24.4144 127.578 22.9619 129.388 22.9619C130.534 22.9619 131.244 23.3889 131.805 24.0112L130.945 24.9449C130.522 24.4957 130.075 24.1845 129.377 24.1845C128.368 24.1845 127.635 25.0604 127.635 26.1323C127.635 27.2279 128.38 28.1038 129.445 28.1038C130.099 28.1038 130.579 27.7926 131.014 27.343L131.85 28.1728C131.255 28.8423 130.556 29.3149 129.377 29.3149Z" fill="#1D70B7"/>
<path id="Fill 25" fill-rule="evenodd" clip-rule="evenodd" d="M132.754 29.1762H134.14V23.0887H132.754V29.1762ZM132.697 22.1549H134.187V20.8291H132.697V22.1549Z" fill="#1D70B7"/>
<path id="Fill 26" fill-rule="evenodd" clip-rule="evenodd" d="M137.853 22.3154L139.067 20.4248L140.327 20.9903L138.929 22.3154H137.853ZM138.38 24.184C137.269 24.184 136.559 25.0602 136.559 26.1318C136.559 27.2159 137.326 28.1036 138.403 28.1036C139.526 28.1036 140.236 27.2274 140.236 26.1559C140.236 25.0718 139.468 24.184 138.38 24.184ZM138.38 29.3148C136.535 29.3148 135.172 27.8961 135.172 26.1559C135.172 24.4031 136.546 22.9614 138.402 22.9614C140.258 22.9614 141.622 24.3801 141.622 26.1318C141.622 27.8738 140.246 29.3148 138.38 29.3148Z" fill="#1D70B7"/>
<path id="Fill 27" fill-rule="evenodd" clip-rule="evenodd" d="M143.956 29.1764H142.57V23.0889H143.956V24.0342C144.346 23.4579 144.907 22.9619 145.847 22.9619C147.21 22.9619 148 23.8849 148 25.3025V29.1764H146.614V25.7183C146.614 24.7719 146.145 24.2302 145.32 24.2302C144.518 24.2302 143.956 24.7957 143.956 25.7406V29.1764Z" fill="#1D70B7"/>
<path id="Fill 28" fill-rule="evenodd" clip-rule="evenodd" d="M78.8661 35.0827H77.2285V37.9876H78.8661C79.9314 37.9876 80.5955 37.3995 80.5955 36.5352C80.5955 35.5787 79.9206 35.0827 78.8661 35.0827ZM78.8204 39.2674H77.229V41.8623H75.8193V33.791H78.981C80.848 33.791 82.0283 34.8521 82.0283 36.501C82.0283 38.3221 80.5853 39.2674 78.8204 39.2674Z" fill="#1D70B7"/>
<path id="Fill 29" fill-rule="evenodd" clip-rule="evenodd" d="M84.0659 41.8626H82.6807V35.7751H84.0659V37.1463C84.4445 36.2355 85.1426 35.6132 86.2079 35.6597V37.1355H86.1276C84.9136 37.1355 84.0659 37.9308 84.0659 39.5444V41.8626Z" fill="#1D70B7"/>
<path id="Fill 30" fill-rule="evenodd" clip-rule="evenodd" d="M89.7125 36.8693C88.601 36.8693 87.8906 37.7452 87.8906 38.8178C87.8906 39.902 88.6587 40.789 89.7354 40.789C90.858 40.789 91.5684 39.9127 91.5684 38.8412C91.5684 37.7571 90.8007 36.8693 89.7125 36.8693ZM89.713 41.9997C87.8689 41.9997 86.5059 40.5822 86.5059 38.8412C86.5059 37.0884 87.8804 35.6475 89.736 35.6475C91.5919 35.6475 92.955 37.065 92.955 38.8178C92.955 40.5591 91.5804 41.9997 89.713 41.9997Z" fill="#1D70B7"/>
<path id="Fill 31" fill-rule="evenodd" clip-rule="evenodd" d="M97.1918 35.8205V36.9729H95.6115V41.8616H94.2252V36.9729H93.457V35.8082H94.2252V35.3701C94.2252 34.0324 94.8893 33.376 96.0811 33.376C96.5617 33.376 96.894 33.445 97.2025 33.5371V34.7133C96.928 34.6205 96.6882 34.563 96.3897 34.563C95.8628 34.563 95.5875 34.8518 95.5875 35.4856V35.8205H97.1918Z" fill="#1D70B7"/>
<path id="Fill 32" fill-rule="evenodd" clip-rule="evenodd" d="M101.775 38.3909C101.683 37.4924 101.155 36.7884 100.239 36.7884C99.3922 36.7884 98.7957 37.4459 98.6699 38.3909H101.775ZM100.422 40.8584C101.098 40.8584 101.579 40.6048 102.059 40.1325L102.873 40.8584C102.3 41.5505 101.51 42.0001 100.398 42.0001C98.6462 42.0001 97.2949 40.7199 97.2949 38.829C97.2949 37.0769 98.5204 35.6475 100.25 35.6475C102.174 35.6475 103.148 37.169 103.148 38.9333C103.148 39.0603 103.137 39.1754 103.124 39.3131H98.6809C98.8412 40.3044 99.5279 40.8584 100.422 40.8584Z" fill="#1D70B7"/>
<path id="Fill 33" fill-rule="evenodd" clip-rule="evenodd" d="M106.171 41.9772C105.313 41.9772 104.361 41.6654 103.605 41.0657L104.223 40.1201C104.878 40.6169 105.587 40.8701 106.206 40.8701C106.801 40.8701 107.145 40.6169 107.145 40.2129V40.1899C107.145 39.7169 106.503 39.5554 105.794 39.3371C104.9 39.0831 103.904 38.7141 103.904 37.5493V37.5263C103.904 36.3739 104.853 35.6699 106.057 35.6699C106.813 35.6699 107.637 35.9354 108.279 36.3616L107.73 37.3529C107.145 36.9961 106.527 36.7771 106.023 36.7771C105.485 36.7771 105.175 37.0303 105.175 37.3878V37.4109C105.175 37.8497 105.828 38.0339 106.538 38.2637C107.42 38.5414 108.416 38.9439 108.416 40.0395V40.0637C108.416 41.342 107.431 41.9772 106.171 41.9772Z" fill="#1D70B7"/>
<path id="Fill 34" fill-rule="evenodd" clip-rule="evenodd" d="M109.459 41.8621H110.845V35.7746H109.459V41.8621ZM109.401 34.8409H110.89V33.5146H109.401V34.8409Z" fill="#1D70B7"/>
<path id="Fill 35" fill-rule="evenodd" clip-rule="evenodd" d="M115.084 36.8693C113.972 36.8693 113.262 37.7452 113.262 38.8178C113.262 39.902 114.03 40.789 115.107 40.789C116.229 40.789 116.94 39.9127 116.94 38.8412C116.94 37.7571 116.172 36.8693 115.084 36.8693ZM115.083 41.9997C113.239 41.9997 111.875 40.5822 111.875 38.8412C111.875 37.0884 113.25 35.6475 115.106 35.6475C116.962 35.6475 118.325 37.065 118.325 38.8178C118.325 40.5591 116.95 41.9997 115.083 41.9997Z" fill="#1D70B7"/>
<path id="Fill 36" fill-rule="evenodd" clip-rule="evenodd" d="M120.672 41.862H119.286V35.7744H120.672V36.719C121.062 36.1427 121.622 35.6475 122.562 35.6475C123.925 35.6475 124.716 36.5697 124.716 37.9873V41.862H123.329V38.4031C123.329 37.4575 122.86 36.915 122.035 36.915C121.233 36.915 120.672 37.4805 120.672 38.4254V41.862Z" fill="#1D70B7"/>
<path id="Fill 37" fill-rule="evenodd" clip-rule="evenodd" d="M129.674 39.279C129.318 39.1412 128.826 39.0369 128.288 39.0369C127.417 39.0369 126.902 39.3944 126.902 40.0171V40.0397C126.902 40.6171 127.417 40.9397 128.07 40.9397C128.987 40.9397 129.674 40.4203 129.674 39.6595V39.279ZM129.639 41.862V41.112C129.227 41.608 128.598 41.9882 127.681 41.9882C126.536 41.9882 125.527 41.331 125.527 40.1084V40.0861C125.527 38.7722 126.57 38.1262 127.979 38.1262C128.712 38.1262 129.182 38.2297 129.651 38.3797V38.2297C129.651 37.3877 129.124 36.9273 128.162 36.9273C127.486 36.9273 126.983 37.0765 126.432 37.3071L126.054 36.1892C126.719 35.8896 127.372 35.6816 128.357 35.6816C130.144 35.6816 131.014 36.6269 131.014 38.2528V41.862H129.639Z" fill="#1D70B7"/>
<path id="Fill 38" fill-rule="evenodd" clip-rule="evenodd" d="M132.285 41.8622H133.671V33.4453H132.285V41.8622Z" fill="#1D70B7"/>
<path id="Fill 39" fill-rule="evenodd" clip-rule="evenodd" d="M0.36408 0.0429688H0V0.409051V0.809663L0.76405 0.0429688H0.36408Z" fill="#93C01F"/>
<path id="Fill 40" fill-rule="evenodd" clip-rule="evenodd" d="M2.17782 0.0429688H1.77748L0 1.82697V2.22795V2.62968L2.57779 0.0429688H2.17782Z" fill="#93C01F"/>
<path id="Fill 41" fill-rule="evenodd" clip-rule="evenodd" d="M3.99452 0.0429688H3.59344L0 3.64922V4.05169V4.45304L4.39412 0.0429688H3.99452Z" fill="#93C01F"/>
<path id="Fill 42" fill-rule="evenodd" clip-rule="evenodd" d="M5.80752 0.0429688H5.40755L0 5.47072V5.87096V6.27194L6.20749 0.0429688H5.80752Z" fill="#93C01F"/>
<path id="Fill 43" fill-rule="evenodd" clip-rule="evenodd" d="M7.62348 0.0429688H7.22314L0 7.29296V7.69358V8.09456L8.0253 0.0429688H7.62348Z" fill="#93C01F"/>
<path id="Fill 44" fill-rule="evenodd" clip-rule="evenodd" d="M9.03928 0.0429688L0.959961 8.15025H1.36067H1.76249L9.05445 0.83194V0.428729V0.0429688H9.03928Z" fill="#93C01F"/>
<path id="Fill 45" fill-rule="evenodd" clip-rule="evenodd" d="M2.77344 8.15038H3.17452H3.57597L9.05419 2.65208V2.25073V1.84863L2.77344 8.15038Z" fill="#93C01F"/>
<path id="Fill 46" fill-rule="evenodd" clip-rule="evenodd" d="M4.58789 8.15054H4.98897H5.38968L9.05379 4.47412V4.0709V3.66992L4.58789 8.15054Z" fill="#93C01F"/>
<path id="Fill 47" fill-rule="evenodd" clip-rule="evenodd" d="M6.40332 8.15069H6.80514H7.20548L9.05437 6.29578V5.89257V5.49121L6.40332 8.15069Z" fill="#93C01F"/>
<path id="Fill 48" fill-rule="evenodd" clip-rule="evenodd" d="M8.2207 8.15034H8.62104H9.02212L9.05431 8.11767V7.7152V7.31348L8.2207 8.15034Z" fill="#93C01F"/>
</g>
</g>
</svg>
