<svg width="125" height="36" viewBox="0 0 125 36" fill="none" xmlns="http://www.w3.org/2000/svg">
<g id="IFP logo-dark">
<g id="Group 3">
<mask id="mask0_1_4302" style="mask-type:alpha" maskUnits="userSpaceOnUse" x="28" y="0" width="29" height="36">
<path id="Clip 2" fill-rule="evenodd" clip-rule="evenodd" d="M28.3067 0H56.1998V35.892H28.3067V0Z" fill="white"/>
</mask>
<g mask="url(#mask0_1_4302)">
<path id="Fill 1" fill-rule="evenodd" clip-rule="evenodd" d="M48.347 12.561C48.347 9.02404 45.9292 7.12541 42.0533 7.12541H36.0611V18.0983H42.2033C46.0814 18.0983 48.347 15.7418 48.347 12.6634V12.561ZM41.9523 25.1251H36.0611V35.8921H28.3067V0H42.7083C51.1142 0 56.1998 5.07562 56.1998 12.4076V12.5119C56.1998 20.8177 49.857 25.1251 41.9523 25.1251Z" fill="#93C01F"/>
</g>
</g>
<mask id="mask1_1_4302" style="mask-type:alpha" maskUnits="userSpaceOnUse" x="0" y="0" width="125" height="36">
<path id="Clip 5" fill-rule="evenodd" clip-rule="evenodd" d="M0 36H125V0H0V36Z" fill="white"/>
</mask>
<g mask="url(#mask1_1_4302)">
<path id="Fill 4" fill-rule="evenodd" clip-rule="evenodd" d="M0 35.8918H7.65219V6.9873H0V35.8918Z" fill="#1D70B7"/>
<path id="Fill 6" fill-rule="evenodd" clip-rule="evenodd" d="M19.2321 7.12477V18.1079H28.3365V25.1241H19.2321V35.7371H11.4784V0H36.0612V7.12477H19.2321Z" fill="#1D70B7"/>
<path id="Fill 7" fill-rule="evenodd" clip-rule="evenodd" d="M64.1038 14.1354H65.2947V7.21777H64.1038V14.1354Z" fill="#1D70B7"/>
<path id="Fill 8" fill-rule="evenodd" clip-rule="evenodd" d="M67.7613 14.1353H66.5906V8.91743H67.7613V9.72767C68.0903 9.23376 68.5644 8.80859 69.3572 8.80859C70.5084 8.80859 71.1763 9.5991 71.1763 10.8145V14.1353H70.0056V11.1706C70.0056 10.3607 69.6088 9.8957 68.9125 9.8957C68.235 9.8957 67.7613 10.3797 67.7613 11.19V14.1353Z" fill="#1D70B7"/>
<path id="Fill 9" fill-rule="evenodd" clip-rule="evenodd" d="M73.3813 14.1353H72.2107V8.91743H73.3813V9.72767C73.7104 9.23376 74.1844 8.80859 74.9773 8.80859C76.1291 8.80859 76.7969 9.5991 76.7969 10.8145V14.1353H75.6263V11.1706C75.6263 10.3607 75.2294 9.8957 74.5326 9.8957C73.8557 9.8957 73.3813 10.3797 73.3813 11.19V14.1353Z" fill="#1D70B7"/>
<path id="Fill 10" fill-rule="evenodd" clip-rule="evenodd" d="M80.2601 9.85624C79.3213 9.85624 78.7213 10.607 78.7213 11.5267C78.7213 12.4553 79.3694 13.2165 80.2791 13.2165C81.2276 13.2165 81.8276 12.4655 81.8276 11.5461C81.8276 10.6175 81.1785 9.85624 80.2601 9.85624ZM80.26 14.254C78.7019 14.254 77.5507 13.0383 77.5507 11.5461C77.5507 10.0443 78.7116 8.80859 80.2791 8.80859C81.8463 8.80859 82.9975 10.024 82.9975 11.5267C82.9975 13.0186 81.8366 14.254 80.26 14.254Z" fill="#1D70B7"/>
<path id="Fill 11" fill-rule="evenodd" clip-rule="evenodd" d="M87.3407 8.91699H88.5694L86.4794 14.1746H85.4254L83.3257 8.91699H84.5838L85.9576 12.7515L87.3407 8.91699Z" fill="#1D70B7"/>
<path id="Fill 12" fill-rule="evenodd" clip-rule="evenodd" d="M92.3419 11.9209C92.0416 11.8029 91.6254 11.7135 91.1713 11.7135C90.4357 11.7135 90.0007 12.0202 90.0007 12.5533V12.5734C90.0007 13.0674 90.4357 13.3438 90.9875 13.3438C91.761 13.3438 92.3419 12.8994 92.3419 12.247V11.9209ZM92.3125 14.135V13.4925C91.9641 13.9173 91.4325 14.2435 90.6578 14.2435C89.6907 14.2435 88.8397 13.6806 88.8397 12.6329V12.6129C88.8397 11.4866 89.7203 10.9332 90.91 10.9332C91.5288 10.9332 91.9257 11.022 92.3228 11.1509V11.022C92.3228 10.3008 91.8775 9.90527 91.0644 9.90527C90.4938 9.90527 90.0685 10.0332 89.6038 10.2311L89.2847 9.27293C89.8463 9.01579 90.3972 8.83789 91.2291 8.83789C92.7388 8.83789 93.4735 9.64813 93.4735 11.042V14.135H92.3125Z" fill="#1D70B7"/>
<path id="Fill 13" fill-rule="evenodd" clip-rule="evenodd" d="M96.85 14.254C95.3309 14.254 94.2084 13.0383 94.2084 11.5458C94.2084 10.0542 95.3309 8.80859 96.8591 8.80859C97.8266 8.80859 98.4266 9.17425 98.9006 9.70794L98.175 10.508C97.8175 10.1232 97.4397 9.85624 96.85 9.85624C95.9978 9.85624 95.3791 10.607 95.3791 11.5267C95.3791 12.4655 96.0084 13.2162 96.9081 13.2162C97.4591 13.2162 97.8656 12.9492 98.2331 12.5635L98.9394 13.2757C98.4362 13.8489 97.8462 14.254 96.85 14.254Z" fill="#1D70B7"/>
<path id="Fill 14" fill-rule="evenodd" clip-rule="evenodd" d="M99.7028 14.1348H100.873V8.91696H99.7028V14.1348ZM99.6547 8.11579H100.912V6.98047H99.6547V8.11579Z" fill="#1D70B7"/>
<path id="Fill 15" fill-rule="evenodd" clip-rule="evenodd" d="M104.008 8.25488L105.033 6.63477L106.098 7.11861L104.917 8.25488H104.008ZM104.453 9.85631C103.515 9.85631 102.915 10.6074 102.915 11.5268C102.915 12.4554 103.563 13.2166 104.473 13.2166C105.42 13.2166 106.02 12.4656 106.02 11.5462C106.02 10.6175 105.372 9.85631 104.453 9.85631ZM104.453 14.2544C102.895 14.2544 101.744 13.0384 101.744 11.5462C101.744 10.0444 102.905 8.80867 104.473 8.80867C106.039 8.80867 107.191 10.0243 107.191 11.5268C107.191 13.0187 106.03 14.2544 104.453 14.2544Z" fill="#1D70B7"/>
<path id="Fill 16" fill-rule="evenodd" clip-rule="evenodd" d="M109.174 14.1353H108.003V8.91743H109.174V9.72767C109.503 9.23376 109.977 8.80859 110.77 8.80859C111.921 8.80859 112.589 9.5991 112.589 10.8145V14.1353H111.418V11.1706C111.418 10.3607 111.021 9.8957 110.325 9.8957C109.648 9.8957 109.174 10.3797 109.174 11.19V14.1353Z" fill="#1D70B7"/>
<path id="Fill 17" fill-rule="evenodd" clip-rule="evenodd" d="M67.403 22.0332C67.3261 21.2627 66.8811 20.6602 66.1074 20.6602C65.3914 20.6602 64.8883 21.2236 64.7814 22.0332H67.403ZM66.2624 24.1485C66.833 24.1485 67.2389 23.9314 67.6452 23.5266L68.3327 24.1485C67.8486 24.742 67.1808 25.1274 66.242 25.1274C64.7627 25.1274 63.6205 24.0301 63.6205 22.4093C63.6205 20.9075 64.6558 19.6816 66.117 19.6816C67.7417 19.6816 68.5645 20.9864 68.5645 22.4981C68.5645 22.6069 68.5549 22.7056 68.5449 22.8243H64.7914C64.9267 23.674 65.5074 24.1485 66.2624 24.1485Z" fill="#1D70B7"/>
<path id="Fill 18" fill-rule="evenodd" clip-rule="evenodd" d="M70.5371 25.0083H69.3671V19.7905H70.5371V20.6007C70.8668 20.1068 71.3403 19.6816 72.1331 19.6816C73.2849 19.6816 73.9528 20.4728 73.9528 21.6878V25.0083H72.7821V22.0443C72.7821 21.2331 72.3853 20.7688 71.689 20.7688C71.0115 20.7688 70.5371 21.2534 70.5371 22.0634V25.0083Z" fill="#1D70B7"/>
<path id="Fill 19" fill-rule="evenodd" clip-rule="evenodd" d="M82.688 19.1973H78.8374V21.0851H82.2521V22.1913H78.8374V25.0084H77.6471V18.0908H82.688V19.1973Z" fill="#1D70B7"/>
<path id="Fill 20" fill-rule="evenodd" clip-rule="evenodd" d="M85.5987 20.7296C84.6606 20.7296 84.0606 21.4803 84.0606 22.3991C84.0606 23.3284 84.7087 24.0893 85.6187 24.0893C86.5662 24.0893 87.1662 23.3382 87.1662 22.4198C87.1662 21.4905 86.5184 20.7296 85.5987 20.7296ZM85.5988 25.1271C84.0419 25.1271 82.8906 23.9114 82.8906 22.4198C82.8906 20.9174 84.0516 19.6816 85.6188 19.6816C87.1856 19.6816 88.3369 20.8973 88.3369 22.3991C88.3369 23.8923 87.1759 25.1271 85.5988 25.1271Z" fill="#1D70B7"/>
<path id="Fill 21" fill-rule="evenodd" clip-rule="evenodd" d="M90.31 25.0084H89.1394V19.7905H90.31V20.9664C90.6291 20.1858 91.22 19.6518 92.1197 19.6915V20.9565H92.0519C91.026 20.9565 90.31 21.6388 90.31 23.0219V25.0084Z" fill="#1D70B7"/>
<path id="Fill 22" fill-rule="evenodd" clip-rule="evenodd" d="M98.775 19.6816C99.8878 19.6816 100.565 20.4034 100.565 21.678V25.0083H99.3938V22.0443C99.3938 21.2137 99.0166 20.7688 98.3588 20.7688C97.721 20.7688 97.2656 21.2238 97.2656 22.0634V25.0083H96.095V22.0338C96.095 21.2238 95.7081 20.7688 95.0597 20.7688C94.4116 20.7688 93.9666 21.263 93.9666 22.0735V25.0083H92.796V19.7905H93.9666V20.581C94.2956 20.1167 94.7406 19.6816 95.5244 19.6816C96.2591 19.6816 96.7725 20.0476 97.0435 20.601C97.4591 20.0476 98.001 19.6816 98.775 19.6816Z" fill="#1D70B7"/>
<path id="Fill 23" fill-rule="evenodd" clip-rule="evenodd" d="M104.763 22.7949C104.462 22.6763 104.047 22.5875 103.592 22.5875C102.856 22.5875 102.421 22.8938 102.421 23.4267V23.4467C102.421 23.9407 102.856 24.2172 103.408 24.2172C104.182 24.2172 104.763 23.7721 104.763 23.1203V22.7949ZM104.733 25.0084V24.3662C104.385 24.7913 103.853 25.1172 103.079 25.1172C102.112 25.1172 101.26 24.5539 101.26 23.506V23.4869C101.26 22.3606 102.141 21.8069 103.331 21.8069C103.95 21.8069 104.347 21.8957 104.744 22.0236V21.8957C104.744 21.1739 104.298 20.7793 103.485 20.7793C102.915 20.7793 102.489 20.9072 102.024 21.1048L101.705 20.1466C102.267 19.8898 102.819 19.7109 103.65 19.7109C105.159 19.7109 105.894 20.5218 105.894 21.9148V25.0084H104.733Z" fill="#1D70B7"/>
<path id="Fill 24" fill-rule="evenodd" clip-rule="evenodd" d="M109.271 25.1271C107.752 25.1271 106.629 23.9114 106.629 22.4195C106.629 20.9266 107.752 19.6816 109.28 19.6816C110.248 19.6816 110.848 20.0476 111.321 20.581L110.596 21.3814C110.238 20.9963 109.86 20.7296 109.271 20.7296C108.418 20.7296 107.8 21.4803 107.8 22.3991C107.8 23.3382 108.429 24.089 109.329 24.089C109.88 24.089 110.286 23.8223 110.654 23.4369L111.36 24.1481C110.857 24.7219 110.267 25.1271 109.271 25.1271Z" fill="#1D70B7"/>
<path id="Fill 25" fill-rule="evenodd" clip-rule="evenodd" d="M112.124 25.0082H113.295V19.7903H112.124V25.0082ZM112.076 18.9895H113.334V17.8535H112.076V18.9895Z" fill="#1D70B7"/>
<path id="Fill 26" fill-rule="evenodd" clip-rule="evenodd" d="M116.429 19.1266L117.454 17.5068L118.519 17.9913L117.338 19.1266H116.429ZM116.875 20.729C115.936 20.729 115.336 21.4801 115.336 22.3985C115.336 23.3278 115.984 24.0887 116.893 24.0887C117.842 24.0887 118.442 23.3376 118.442 22.4192C118.442 21.4899 117.793 20.729 116.875 20.729ZM116.874 25.1268C115.316 25.1268 114.165 23.9108 114.165 22.4192C114.165 20.9168 115.326 19.6811 116.893 19.6811C118.461 19.6811 119.613 20.897 119.613 22.3985C119.613 23.8917 118.451 25.1268 116.874 25.1268Z" fill="#1D70B7"/>
<path id="Fill 27" fill-rule="evenodd" clip-rule="evenodd" d="M121.585 25.0083H120.414V19.7905H121.585V20.6007C121.914 20.1068 122.388 19.6816 123.181 19.6816C124.332 19.6816 125 20.4728 125 21.6878V25.0083H123.83V22.0443C123.83 21.2331 123.433 20.7688 122.736 20.7688C122.059 20.7688 121.585 21.2534 121.585 22.0634V25.0083Z" fill="#1D70B7"/>
<path id="Fill 28" fill-rule="evenodd" clip-rule="evenodd" d="M66.6102 30.071H65.2271V32.5609H66.6102C67.5099 32.5609 68.0708 32.0568 68.0708 31.316C68.0708 30.4962 67.5008 30.071 66.6102 30.071ZM66.5711 33.6579H65.227V35.8821H64.0364V28.9639H66.7067C68.2836 28.9639 69.2804 29.8734 69.2804 31.2867C69.2804 32.8477 68.0617 33.6579 66.5711 33.6579Z" fill="#1D70B7"/>
<path id="Fill 29" fill-rule="evenodd" clip-rule="evenodd" d="M71.0016 35.8814H69.8316V30.6636H71.0016V31.8388C71.3213 31.0582 71.911 30.5248 72.8107 30.5646V31.8296H72.7429C71.7175 31.8296 71.0016 32.5113 71.0016 33.8943V35.8814Z" fill="#1D70B7"/>
<path id="Fill 30" fill-rule="evenodd" clip-rule="evenodd" d="M75.7709 31.602C74.8322 31.602 74.2322 32.3527 74.2322 33.2721C74.2322 34.2014 74.8809 34.9617 75.7903 34.9617C76.7384 34.9617 77.3384 34.2106 77.3384 33.2922C77.3384 32.3629 76.69 31.602 75.7709 31.602ZM75.7709 35.9995C74.2134 35.9995 73.0621 34.7844 73.0621 33.2922C73.0621 31.7898 74.2231 30.5547 75.7903 30.5547C77.3578 30.5547 78.509 31.7697 78.509 33.2721C78.509 34.7647 77.3481 35.9995 75.7709 35.9995Z" fill="#1D70B7"/>
<path id="Fill 31" fill-rule="evenodd" clip-rule="evenodd" d="M82.088 30.7037V31.6915H80.7533V35.8818H79.5824V31.6915H78.9337V30.6932H79.5824V30.3177C79.5824 29.171 80.1433 28.6084 81.1499 28.6084C81.5558 28.6084 81.8365 28.6676 82.0971 28.7465V29.7547C81.8652 29.6751 81.6627 29.6258 81.4105 29.6258C80.9655 29.6258 80.733 29.8734 80.733 30.4166V30.7037H82.088Z" fill="#1D70B7"/>
<path id="Fill 32" fill-rule="evenodd" clip-rule="evenodd" d="M85.9576 32.9056C85.8801 32.1358 85.4345 31.5326 84.6608 31.5326C83.9454 31.5326 83.4417 32.096 83.3354 32.9056H85.9576ZM84.8157 35.0212C85.387 35.0212 85.7929 34.8038 86.1986 34.399L86.8861 35.0212C86.402 35.6144 85.7348 35.9998 84.7961 35.9998C83.3161 35.9998 82.1748 34.9025 82.1748 33.2817C82.1748 31.7799 83.2098 30.5547 84.6704 30.5547C86.2957 30.5547 87.1186 31.8588 87.1186 33.3711C87.1186 33.48 87.1089 33.5786 87.0982 33.6967H83.3454C83.4807 34.5464 84.0607 35.0212 84.8157 35.0212Z" fill="#1D70B7"/>
<path id="Fill 33" fill-rule="evenodd" clip-rule="evenodd" d="M89.6716 35.9805C88.9466 35.9805 88.1432 35.7132 87.5048 35.1992L88.0266 34.3886C88.5791 34.8145 89.1785 35.0315 89.701 35.0315C90.2038 35.0315 90.4938 34.8145 90.4938 34.4682V34.4485C90.4938 34.043 89.9523 33.9046 89.3529 33.7175C88.5979 33.4998 87.7569 33.1835 87.7569 32.1852V32.1654C87.7569 31.1776 88.5588 30.5742 89.5751 30.5742C90.2135 30.5742 90.9101 30.8018 91.4519 31.1671L90.9882 32.0168C90.4938 31.711 89.9719 31.5232 89.5466 31.5232C89.0919 31.5232 88.8301 31.7403 88.8301 32.0467V32.0664C88.8301 32.4426 89.3816 32.6005 89.9816 32.7974C90.7263 33.0355 91.5679 33.3805 91.5679 34.3196V34.3403C91.5679 35.436 90.736 35.9805 89.6716 35.9805Z" fill="#1D70B7"/>
<path id="Fill 34" fill-rule="evenodd" clip-rule="evenodd" d="M92.4481 35.8816H93.6187V30.6637H92.4481V35.8816ZM92.4 29.8628H93.6572V28.7266H92.4V29.8628Z" fill="#1D70B7"/>
<path id="Fill 35" fill-rule="evenodd" clip-rule="evenodd" d="M97.1979 31.602C96.2591 31.602 95.6591 32.3527 95.6591 33.2721C95.6591 34.2014 96.3079 34.9617 97.2172 34.9617C98.1654 34.9617 98.7654 34.2106 98.7654 33.2922C98.7654 32.3629 98.1169 31.602 97.1979 31.602ZM97.1978 35.9995C95.6403 35.9995 94.4885 34.7844 94.4885 33.2922C94.4885 31.7898 95.65 30.5547 97.2172 30.5547C98.7847 30.5547 99.936 31.7697 99.936 33.2721C99.936 34.7647 98.775 35.9995 97.1978 35.9995Z" fill="#1D70B7"/>
<path id="Fill 36" fill-rule="evenodd" clip-rule="evenodd" d="M101.919 35.8824H100.748V30.6645H101.919V31.4741C102.248 30.9802 102.721 30.5557 103.515 30.5557C104.666 30.5557 105.334 31.3462 105.334 32.5612V35.8824H104.163V32.9176C104.163 32.1071 103.766 31.6421 103.07 31.6421C102.393 31.6421 101.919 32.1268 101.919 32.9367V35.8824Z" fill="#1D70B7"/>
<path id="Fill 37" fill-rule="evenodd" clip-rule="evenodd" d="M109.522 33.6673C109.222 33.5493 108.806 33.4599 108.352 33.4599C107.616 33.4599 107.182 33.7663 107.182 34.2997V34.3191C107.182 34.8138 107.616 35.0902 108.168 35.0902C108.942 35.0902 109.522 34.6452 109.522 33.9934V33.6673ZM109.493 35.8814V35.2386C109.145 35.6637 108.613 35.9896 107.839 35.9896C106.871 35.9896 106.02 35.4263 106.02 34.3784V34.3593C106.02 33.233 106.901 32.6793 108.09 32.6793C108.71 32.6793 109.106 32.7681 109.503 32.8966V32.7681C109.503 32.0463 109.058 31.6517 108.245 31.6517C107.675 31.6517 107.249 31.7796 106.784 31.9772L106.465 31.019C107.026 30.7622 107.578 30.584 108.41 30.584C109.919 30.584 110.654 31.3942 110.654 32.7878V35.8814H109.493Z" fill="#1D70B7"/>
<path id="Fill 38" fill-rule="evenodd" clip-rule="evenodd" d="M111.727 35.8815H112.898V28.667H111.727V35.8815Z" fill="#1D70B7"/>
<path id="Fill 39" fill-rule="evenodd" clip-rule="evenodd" d="M0.307622 0.0371094H0.00012207V0.350762V0.693999L0.645435 0.0371094H0.307622Z" fill="#93C01F"/>
<path id="Fill 40" fill-rule="evenodd" clip-rule="evenodd" d="M1.83931 0.0371094H1.50119L-6.10352e-05 1.56561V1.90917V2.25336L2.17713 0.0371094H1.83931Z" fill="#93C01F"/>
<path id="Fill 41" fill-rule="evenodd" clip-rule="evenodd" d="M3.37375 0.0371094H3.035L0 3.12818V3.47315V3.81717L3.71125 0.0371094H3.37375Z" fill="#93C01F"/>
<path id="Fill 42" fill-rule="evenodd" clip-rule="evenodd" d="M4.90494 0.0371094H4.56713L-6.10352e-05 4.68947V5.03253V5.37623L5.24275 0.0371094H4.90494Z" fill="#93C01F"/>
<path id="Fill 43" fill-rule="evenodd" clip-rule="evenodd" d="M6.43875 0.0371094H6.10063L0 6.25139V6.59477V6.93847L6.77813 0.0371094H6.43875Z" fill="#93C01F"/>
<path id="Fill 44" fill-rule="evenodd" clip-rule="evenodd" d="M7.6343 0.0371094L0.810547 6.98621H1.14898H1.48836L7.64711 0.71337V0.367761V0.0371094H7.6343Z" fill="#93C01F"/>
<path id="Fill 45" fill-rule="evenodd" clip-rule="evenodd" d="M2.34241 6.98646H2.68116H3.02022L7.64709 2.27363V1.92962V1.58496L2.34241 6.98646Z" fill="#93C01F"/>
<path id="Fill 46" fill-rule="evenodd" clip-rule="evenodd" d="M3.87524 6.98603H4.21399H4.55243L7.64712 3.83482V3.48921V3.14551L3.87524 6.98603Z" fill="#93C01F"/>
<path id="Fill 47" fill-rule="evenodd" clip-rule="evenodd" d="M5.4082 6.98465H5.74758H6.0857L7.64727 5.39539V5.04993V4.70605L5.4082 6.98465Z" fill="#93C01F"/>
<path id="Fill 48" fill-rule="evenodd" clip-rule="evenodd" d="M6.94287 6.98557H7.281H7.61975L7.64693 6.95757V6.61275V6.26855L6.94287 6.98557Z" fill="#93C01F"/>
</g>
</g>
</svg>
