<svg width="148" height="42" viewBox="0 0 148 42" fill="none" xmlns="http://www.w3.org/2000/svg">
<g id="IFP logo-light">
<path id="Fill 1" fill-rule="evenodd" clip-rule="evenodd" d="M57.2428 14.6544C57.2428 10.528 54.3801 8.31292 49.791 8.31292H42.6963V21.1146H49.9686C54.5603 21.1146 57.2428 18.3653 57.2428 14.7739V14.6544ZM49.6717 29.3124H42.6964V41.8739H33.5153V0H50.5667C60.5193 0 66.5407 5.92152 66.5407 14.4754V14.5972C66.5407 24.2872 59.0308 29.3124 49.6717 29.3124Z" fill="#93C01F"/>
<path id="Fill 4" fill-rule="evenodd" clip-rule="evenodd" d="M0 41.8741H9.06018V8.15234H0V41.8741Z" fill="white"/>
<path id="Fill 6" fill-rule="evenodd" clip-rule="evenodd" d="M22.771 8.31218V21.1257H33.5506V29.3113H22.771V41.6931H13.5906V0H42.6966V8.31218H22.771Z" fill="white"/>
<path id="Fill 7" fill-rule="evenodd" clip-rule="evenodd" d="M75.8988 16.4914H77.3089V8.4209H75.8988V16.4914Z" fill="white"/>
<path id="Fill 8" fill-rule="evenodd" clip-rule="evenodd" d="M80.2293 16.4908H78.8433V10.4033H80.2293V11.3486C80.6189 10.7724 81.1802 10.2764 82.1189 10.2764C83.4819 10.2764 84.2726 11.1986 84.2726 12.6165V16.4908H82.8866V13.032C82.8866 12.0871 82.4167 11.5447 81.5924 11.5447C80.7902 11.5447 80.2293 12.1094 80.2293 13.0546V16.4908Z" fill="white"/>
<path id="Fill 9" fill-rule="evenodd" clip-rule="evenodd" d="M86.8835 16.4908H85.4974V10.4033H86.8835V11.3486C87.2731 10.7724 87.8344 10.2764 88.773 10.2764C90.1369 10.2764 90.9275 11.1986 90.9275 12.6165V16.4908H89.5415V13.032C89.5415 12.0871 89.0716 11.5447 88.2465 11.5447C87.4451 11.5447 86.8835 12.1094 86.8835 13.0546V16.4908Z" fill="white"/>
<path id="Fill 10" fill-rule="evenodd" clip-rule="evenodd" d="M95.0278 11.4986C93.9163 11.4986 93.2059 12.3745 93.2059 13.4475C93.2059 14.5308 93.9733 15.4189 95.0504 15.4189C96.1733 15.4189 96.8837 14.5427 96.8837 13.4701C96.8837 12.3867 96.1152 11.4986 95.0278 11.4986ZM95.0278 16.6293C93.183 16.6293 91.8199 15.211 91.8199 13.4701C91.8199 11.718 93.1945 10.2764 95.0504 10.2764C96.906 10.2764 98.269 11.6943 98.269 13.4475C98.269 15.188 96.8945 16.6293 95.0278 16.6293Z" fill="white"/>
<path id="Fill 11" fill-rule="evenodd" clip-rule="evenodd" d="M103.411 10.4033H104.866L102.392 16.5372H101.144L98.6576 10.4033H100.147L101.774 14.8769L103.411 10.4033Z" fill="white"/>
<path id="Fill 12" fill-rule="evenodd" clip-rule="evenodd" d="M109.333 13.9085C108.977 13.7707 108.484 13.6664 107.947 13.6664C107.076 13.6664 106.561 14.0243 106.561 14.6466V14.67C106.561 15.2466 107.076 15.5692 107.729 15.5692C108.645 15.5692 109.333 15.0505 109.333 14.289V13.9085ZM109.298 16.4915V15.7418C108.886 16.2375 108.256 16.6181 107.339 16.6181C106.194 16.6181 105.186 15.9613 105.186 14.739V14.7156C105.186 13.4017 106.229 12.756 107.638 12.756C108.37 12.756 108.84 12.8596 109.31 13.01V12.8596C109.31 12.0183 108.783 11.5568 107.82 11.5568C107.145 11.5568 106.641 11.706 106.091 11.937L105.713 10.8191C106.378 10.5191 107.03 10.3115 108.015 10.3115C109.803 10.3115 110.673 11.2568 110.673 12.883V16.4915H109.298Z" fill="white"/>
<path id="Fill 13" fill-rule="evenodd" clip-rule="evenodd" d="M114.67 16.6293C112.872 16.6293 111.543 15.211 111.543 13.4697C111.543 11.7296 112.872 10.2764 114.681 10.2764C115.827 10.2764 116.537 10.703 117.098 11.3256L116.239 12.259C115.816 11.8101 115.369 11.4986 114.67 11.4986C113.661 11.4986 112.929 12.3745 112.929 13.4475C112.929 14.5427 113.674 15.4186 114.739 15.4186C115.391 15.4186 115.873 15.1071 116.308 14.6571L117.144 15.488C116.548 16.1567 115.85 16.6293 114.67 16.6293Z" fill="white"/>
<path id="Fill 14" fill-rule="evenodd" clip-rule="evenodd" d="M118.048 16.4912H119.434V10.4038H118.048V16.4912ZM117.991 9.46962H119.48V8.14453H117.991V9.46962Z" fill="white"/>
<path id="Fill 15" fill-rule="evenodd" clip-rule="evenodd" d="M123.146 9.63115L124.36 7.74023L125.619 8.30495L124.222 9.63115H123.146ZM123.672 11.4987C122.562 11.4987 121.851 12.3749 121.851 13.4475C121.851 14.5309 122.618 15.419 123.695 15.419C124.817 15.419 125.527 14.5428 125.527 13.4702C125.527 12.3868 124.761 11.4987 123.672 11.4987ZM123.672 16.6298C121.828 16.6298 120.465 15.2111 120.465 13.4702C120.465 11.7181 121.84 10.2764 123.695 10.2764C125.551 10.2764 126.914 11.6947 126.914 13.4475C126.914 15.1881 125.539 16.6298 123.672 16.6298Z" fill="white"/>
<path id="Fill 16" fill-rule="evenodd" clip-rule="evenodd" d="M129.261 16.4908H127.875V10.4033H129.261V11.3486C129.651 10.7724 130.212 10.2764 131.152 10.2764C132.514 10.2764 133.305 11.1986 133.305 12.6165V16.4908H131.919V13.032C131.919 12.0871 131.449 11.5447 130.624 11.5447C129.823 11.5447 129.261 12.1094 129.261 13.0546V16.4908Z" fill="white"/>
<path id="Fill 17" fill-rule="evenodd" clip-rule="evenodd" d="M79.8051 25.706C79.7141 24.8068 79.1872 24.1036 78.2711 24.1036C77.4234 24.1036 76.8277 24.7611 76.7012 25.706H79.8051ZM78.4546 28.1732C79.1303 28.1732 79.6109 27.92 80.0919 27.4477L80.9059 28.1732C80.3328 28.8656 79.5421 29.3152 78.4306 29.3152C76.679 29.3152 75.3267 28.0351 75.3267 26.1441C75.3267 24.3921 76.5525 22.9619 78.2826 22.9619C80.2062 22.9619 81.1804 24.4842 81.1804 26.2477C81.1804 26.3747 81.169 26.4898 81.1571 26.6283H76.713C76.8733 27.6196 77.5607 28.1732 78.4546 28.1732Z" fill="white"/>
<path id="Fill 18" fill-rule="evenodd" clip-rule="evenodd" d="M83.5159 29.1764H82.1306V23.0889H83.5159V24.0342C83.9062 23.4579 84.4668 22.9619 85.4055 22.9619C86.7693 22.9619 87.56 23.8849 87.56 25.3025V29.1764H86.174V25.7183C86.174 24.7719 85.7041 24.2302 84.8797 24.2302C84.0776 24.2302 83.5159 24.7957 83.5159 25.7406V29.1764Z" fill="white"/>
<path id="Fill 19" fill-rule="evenodd" clip-rule="evenodd" d="M97.9025 22.3964H93.3434V24.5988H97.3864V25.8894H93.3434V29.1759H91.9341V21.1055H97.9025V22.3964Z" fill="white"/>
<path id="Fill 20" fill-rule="evenodd" clip-rule="evenodd" d="M101.349 24.1845C100.238 24.1845 99.5277 25.0604 99.5277 26.1323C99.5277 27.2164 100.295 28.1041 101.373 28.1041C102.494 28.1041 103.205 27.2279 103.205 26.1564C103.205 25.0723 102.438 24.1845 101.349 24.1845ZM101.349 29.3149C99.5055 29.3149 98.1425 27.8966 98.1425 26.1564C98.1425 24.4036 99.517 22.9619 101.373 22.9619C103.228 22.9619 104.591 24.3802 104.591 26.1323C104.591 27.8743 103.216 29.3149 101.349 29.3149Z" fill="white"/>
<path id="Fill 21" fill-rule="evenodd" clip-rule="evenodd" d="M106.927 29.1761H105.541V23.0886H106.927V24.4605C107.305 23.5497 108.004 22.9267 109.07 22.9731V24.449H108.989C107.775 24.449 106.927 25.245 106.927 26.8586V29.1761Z" fill="white"/>
<path id="Fill 22" fill-rule="evenodd" clip-rule="evenodd" d="M116.95 22.9619C118.267 22.9619 119.069 23.804 119.069 25.2909V29.1764H117.682V25.7183C117.682 24.7492 117.236 24.2302 116.457 24.2302C115.702 24.2302 115.162 24.7611 115.162 25.7406V29.1764H113.776V25.706C113.776 24.7611 113.318 24.2302 112.551 24.2302C111.783 24.2302 111.256 24.8068 111.256 25.7524V29.1764H109.87V23.0889H111.256V24.0111C111.646 23.4695 112.173 22.9619 113.101 22.9619C113.971 22.9619 114.579 23.3889 114.899 24.0345C115.391 23.3889 116.033 22.9619 116.95 22.9619Z" fill="white"/>
<path id="Fill 23" fill-rule="evenodd" clip-rule="evenodd" d="M124.039 26.5941C123.683 26.4557 123.191 26.3521 122.653 26.3521C121.782 26.3521 121.267 26.7096 121.267 27.3315V27.3549C121.267 27.9315 121.782 28.2541 122.435 28.2541C123.352 28.2541 124.039 27.7347 124.039 26.974V26.5941ZM124.004 29.1764V28.4272C123.592 28.9232 122.962 29.3034 122.046 29.3034C120.901 29.3034 119.892 28.6462 119.892 27.4236V27.4013C119.892 26.0874 120.935 25.4413 122.344 25.4413C123.077 25.4413 123.547 25.5449 124.016 25.6942V25.5449C124.016 24.7029 123.489 24.2425 122.526 24.2425C121.851 24.2425 121.347 24.3917 120.797 24.6223L120.419 23.5044C121.084 23.2048 121.737 22.9961 122.722 22.9961C124.509 22.9961 125.379 23.9421 125.379 25.5672V29.1764H124.004Z" fill="white"/>
<path id="Fill 24" fill-rule="evenodd" clip-rule="evenodd" d="M129.376 29.3149C127.578 29.3149 126.249 27.8966 126.249 26.156C126.249 24.4144 127.578 22.9619 129.388 22.9619C130.533 22.9619 131.244 23.3889 131.804 24.0111L130.945 24.9449C130.522 24.4957 130.075 24.1845 129.376 24.1845C128.367 24.1845 127.635 25.0604 127.635 26.1323C127.635 27.2279 128.38 28.1037 129.445 28.1037C130.098 28.1037 130.579 27.7926 131.014 27.343L131.85 28.1728C131.255 28.8422 130.556 29.3149 129.376 29.3149Z" fill="white"/>
<path id="Fill 25" fill-rule="evenodd" clip-rule="evenodd" d="M132.755 29.1762H134.141V23.0887H132.755V29.1762ZM132.698 22.1549H134.187V20.8291H132.698V22.1549Z" fill="white"/>
<path id="Fill 26" fill-rule="evenodd" clip-rule="evenodd" d="M137.852 22.3154L139.066 20.4248L140.326 20.9903L138.928 22.3154H137.852ZM138.379 24.184C137.268 24.184 136.557 25.0602 136.557 26.1317C136.557 27.2159 137.325 28.1036 138.401 28.1036C139.524 28.1036 140.235 27.2274 140.235 26.1559C140.235 25.0717 139.467 24.184 138.379 24.184ZM138.379 29.3147C136.534 29.3147 135.171 27.896 135.171 26.1559C135.171 24.4031 136.546 22.9614 138.401 22.9614C140.257 22.9614 141.621 24.38 141.621 26.1317C141.621 27.8738 140.246 29.3147 138.379 29.3147Z" fill="white"/>
<path id="Fill 27" fill-rule="evenodd" clip-rule="evenodd" d="M143.956 29.1764H142.57V23.0889H143.956V24.0342C144.346 23.4579 144.907 22.9619 145.846 22.9619C147.209 22.9619 148 23.8849 148 25.3025V29.1764H146.614V25.7183C146.614 24.7719 146.144 24.2302 145.32 24.2302C144.518 24.2302 143.956 24.7957 143.956 25.7406V29.1764Z" fill="white"/>
<path id="Fill 28" fill-rule="evenodd" clip-rule="evenodd" d="M78.8664 35.0827H77.2288V37.9876H78.8664C79.9316 37.9876 80.5958 37.3995 80.5958 36.5351C80.5958 35.5787 79.9209 35.0827 78.8664 35.0827ZM78.8202 39.2674H77.2288V41.8622H75.8191V33.791H78.9807C80.8478 33.791 82.0281 34.8521 82.0281 36.501C82.0281 38.3221 80.5851 39.2674 78.8202 39.2674Z" fill="white"/>
<path id="Fill 29" fill-rule="evenodd" clip-rule="evenodd" d="M84.0658 41.8616H82.6805V35.7741H84.0658V37.1453C84.4443 36.2345 85.1425 35.6123 86.2077 35.6587V37.1345H86.1275C84.9135 37.1345 84.0658 37.9298 84.0658 39.5434V41.8616Z" fill="white"/>
<path id="Fill 30" fill-rule="evenodd" clip-rule="evenodd" d="M89.7127 36.8693C88.6013 36.8693 87.8909 37.7452 87.8909 38.8178C87.8909 39.9019 88.659 40.7889 89.7357 40.7889C90.8583 40.7889 91.5687 39.9127 91.5687 38.8412C91.5687 37.7571 90.8009 36.8693 89.7127 36.8693ZM89.7128 41.9997C87.8687 41.9997 86.5056 40.5821 86.5056 38.8412C86.5056 37.0884 87.8802 35.6475 89.7357 35.6475C91.5916 35.6475 92.9547 37.065 92.9547 38.8178C92.9547 40.5591 91.5802 41.9997 89.7128 41.9997Z" fill="white"/>
<path id="Fill 31" fill-rule="evenodd" clip-rule="evenodd" d="M97.1922 35.8205V36.9729H95.6119V41.8615H94.2255V36.9729H93.4574V35.8082H94.2255V35.3701C94.2255 34.0324 94.8897 33.376 96.0814 33.376C96.5621 33.376 96.8943 33.445 97.2029 33.5371V34.7133C96.9284 34.6205 96.6886 34.563 96.39 34.563C95.8631 34.563 95.5879 34.8518 95.5879 35.4856V35.8205H97.1922Z" fill="white"/>
<path id="Fill 32" fill-rule="evenodd" clip-rule="evenodd" d="M101.774 38.3908C101.682 37.4923 101.154 36.7884 100.238 36.7884C99.3913 36.7884 98.7949 37.4459 98.6691 38.3908H101.774ZM100.422 40.8584C101.098 40.8584 101.579 40.6048 102.059 40.1325L102.873 40.8584C102.3 41.5504 101.51 42 100.398 42C98.6462 42 97.2949 40.7199 97.2949 38.8289C97.2949 37.0769 98.5204 35.6475 100.25 35.6475C102.174 35.6475 103.148 37.169 103.148 38.9333C103.148 39.0603 103.137 39.1753 103.124 39.3131H98.6809C98.8412 40.3044 99.5279 40.8584 100.422 40.8584Z" fill="white"/>
<path id="Fill 33" fill-rule="evenodd" clip-rule="evenodd" d="M106.171 41.9772C105.313 41.9772 104.361 41.6653 103.605 41.0657L104.223 40.1201C104.878 40.6168 105.587 40.87 106.206 40.87C106.801 40.87 107.145 40.6168 107.145 40.2129V40.1899C107.145 39.7169 106.503 39.5553 105.794 39.337C104.9 39.0831 103.904 38.714 103.904 37.5493V37.5263C103.904 36.3739 104.853 35.6699 106.057 35.6699C106.813 35.6699 107.637 35.9354 108.279 36.3616L107.73 37.3529C107.145 36.9961 106.527 36.7771 106.023 36.7771C105.485 36.7771 105.175 37.0303 105.175 37.3878V37.4108C105.175 37.8497 105.828 38.0339 106.538 38.2637C107.42 38.5414 108.416 38.9439 108.416 40.0395V40.0636C108.416 41.3419 107.431 41.9772 106.171 41.9772Z" fill="white"/>
<path id="Fill 34" fill-rule="evenodd" clip-rule="evenodd" d="M109.459 41.8621H110.845V35.7746H109.459V41.8621ZM109.402 34.8409H110.89V33.5146H109.402V34.8409Z" fill="white"/>
<path id="Fill 35" fill-rule="evenodd" clip-rule="evenodd" d="M115.082 36.8693C113.971 36.8693 113.26 37.7452 113.26 38.8178C113.26 39.9019 114.028 40.7889 115.105 40.7889C116.228 40.7889 116.938 39.9127 116.938 38.8412C116.938 37.7571 116.17 36.8693 115.082 36.8693ZM115.082 41.9997C113.238 41.9997 111.874 40.5821 111.874 38.8412C111.874 37.0884 113.25 35.6475 115.105 35.6475C116.961 35.6475 118.324 37.065 118.324 38.8178C118.324 40.5591 116.95 41.9997 115.082 41.9997Z" fill="white"/>
<path id="Fill 36" fill-rule="evenodd" clip-rule="evenodd" d="M120.672 41.8619H119.286V35.7744H120.672V36.719C121.062 36.1427 121.622 35.6475 122.561 35.6475C123.925 35.6475 124.715 36.5697 124.715 37.9873V41.8619H123.329V38.4031C123.329 37.4574 122.859 36.915 122.035 36.915C121.233 36.915 120.672 37.4805 120.672 38.4254V41.8619Z" fill="white"/>
<path id="Fill 37" fill-rule="evenodd" clip-rule="evenodd" d="M129.674 39.279C129.318 39.1412 128.826 39.0369 128.288 39.0369C127.417 39.0369 126.903 39.3944 126.903 40.0171V40.0397C126.903 40.617 127.417 40.9397 128.07 40.9397C128.987 40.9397 129.674 40.4203 129.674 39.6595V39.279ZM129.639 41.8619V41.112C129.227 41.608 128.598 41.9882 127.681 41.9882C126.536 41.9882 125.527 41.331 125.527 40.1084V40.0861C125.527 38.7722 126.57 38.1261 127.979 38.1261C128.712 38.1261 129.182 38.2297 129.651 38.3797V38.2297C129.651 37.3877 129.124 36.9273 128.162 36.9273C127.487 36.9273 126.983 37.0765 126.432 37.3071L126.054 36.1892C126.719 35.8896 127.372 35.6816 128.357 35.6816C130.144 35.6816 131.014 36.6269 131.014 38.2527V41.8619H129.639Z" fill="white"/>
<path id="Fill 38" fill-rule="evenodd" clip-rule="evenodd" d="M132.285 41.8622H133.671V33.4453H132.285V41.8622Z" fill="white"/>
<path id="Fill 39" fill-rule="evenodd" clip-rule="evenodd" d="M0.364324 0.0429688H0.000244141V0.409049V0.809658L0.764293 0.0429688H0.364324Z" fill="#93C01F"/>
<path id="Fill 40" fill-rule="evenodd" clip-rule="evenodd" d="M2.17782 0.0429688H1.77748L0 1.82696V2.22794V2.62966L2.57779 0.0429688H2.17782Z" fill="#93C01F"/>
<path id="Fill 41" fill-rule="evenodd" clip-rule="evenodd" d="M3.99452 0.0429688H3.59344L0 3.64919V4.05166V4.45301L4.39411 0.0429688H3.99452Z" fill="#93C01F"/>
<path id="Fill 42" fill-rule="evenodd" clip-rule="evenodd" d="M5.80751 0.0429688H5.40754L0 5.47069V5.87092V6.2719L6.20748 0.0429688H5.80751Z" fill="#93C01F"/>
<path id="Fill 43" fill-rule="evenodd" clip-rule="evenodd" d="M7.62347 0.0429688H7.22313L0 7.29292V7.69353V8.09451L8.02529 0.0429688H7.62347Z" fill="#93C01F"/>
<path id="Fill 44" fill-rule="evenodd" clip-rule="evenodd" d="M9.03903 0.0429688L0.959717 8.1502H1.36043H1.76225L9.0542 0.831935V0.428727V0.0429688H9.03903Z" fill="#93C01F"/>
<path id="Fill 45" fill-rule="evenodd" clip-rule="evenodd" d="M2.77344 8.15034H3.17452H3.57597L9.05418 2.65208V2.25073V1.84863L2.77344 8.15034Z" fill="#93C01F"/>
<path id="Fill 46" fill-rule="evenodd" clip-rule="evenodd" d="M4.58838 8.15051H4.98946H5.39017L9.05427 4.47411V4.0709V3.66992L4.58838 8.15051Z" fill="#93C01F"/>
<path id="Fill 47" fill-rule="evenodd" clip-rule="evenodd" d="M6.40344 8.15068H6.80526H7.2056L9.05449 6.29577V5.89256V5.49121L6.40344 8.15068Z" fill="#93C01F"/>
<path id="Fill 48" fill-rule="evenodd" clip-rule="evenodd" d="M8.22046 8.15034H8.6208H9.02188L9.05407 8.11767V7.7152V7.31348L8.22046 8.15034Z" fill="#93C01F"/>
</g>
</svg>
