<svg width="125" height="36" viewBox="0 0 125 36" fill="none" xmlns="http://www.w3.org/2000/svg">
<g id="IFP logo-light">
<path id="Fill 1" fill-rule="evenodd" clip-rule="evenodd" d="M48.347 12.5609C48.347 9.02397 45.9292 7.12536 42.0533 7.12536H36.0611V18.0982H42.2033C46.0814 18.0982 48.347 15.7417 48.347 12.6633V12.5609ZM41.9524 25.1249H36.0611V35.8919H28.3068V0H42.7083C51.1142 0 56.1999 5.07559 56.1999 12.4075V12.5119C56.1999 20.8176 49.857 25.1249 41.9524 25.1249Z" fill="#93C01F"/>
<path id="Fill 4" fill-rule="evenodd" clip-rule="evenodd" d="M0.00012207 35.8916H7.6523V6.9873H0.00012207V35.8916Z" fill="white"/>
<path id="Fill 6" fill-rule="evenodd" clip-rule="evenodd" d="M19.2323 7.12472V18.1078H28.3366V25.124H19.2323V35.7369H11.4785V0H36.0613V7.12472H19.2323Z" fill="white"/>
<path id="Fill 7" fill-rule="evenodd" clip-rule="evenodd" d="M64.1038 14.1353H65.2952V7.21777H64.1038V14.1353Z" fill="white"/>
<path id="Fill 8" fill-rule="evenodd" clip-rule="evenodd" d="M67.7612 14.1353H66.5906V8.91743H67.7612V9.72767C68.0903 9.23376 68.5643 8.80859 69.3571 8.80859C70.5084 8.80859 71.1762 9.5991 71.1762 10.8145V14.1353H70.0056V11.1706C70.0056 10.3606 69.6087 9.8957 68.9124 9.8957C68.2349 9.8957 67.7612 10.3797 67.7612 11.19V14.1353Z" fill="white"/>
<path id="Fill 9" fill-rule="evenodd" clip-rule="evenodd" d="M73.3813 14.1353H72.2107V8.91743H73.3813V9.72767C73.7104 9.23376 74.1844 8.80859 74.9773 8.80859C76.1291 8.80859 76.7969 9.5991 76.7969 10.8145V14.1353H75.6263V11.1706C75.6263 10.3606 75.2294 9.8957 74.5326 9.8957C73.8557 9.8957 73.3813 10.3797 73.3813 11.19V14.1353Z" fill="white"/>
<path id="Fill 10" fill-rule="evenodd" clip-rule="evenodd" d="M80.26 9.85624C79.3213 9.85624 78.7213 10.607 78.7213 11.5267C78.7213 12.4553 79.3694 13.2165 80.2791 13.2165C81.2275 13.2165 81.8275 12.4655 81.8275 11.5461C81.8275 10.6175 81.1785 9.85624 80.26 9.85624ZM80.26 14.254C78.7019 14.254 77.5507 13.0383 77.5507 11.5461C77.5507 10.0443 78.7116 8.80859 80.2791 8.80859C81.8463 8.80859 82.9975 10.0239 82.9975 11.5267C82.9975 13.0186 81.8366 14.254 80.26 14.254Z" fill="white"/>
<path id="Fill 11" fill-rule="evenodd" clip-rule="evenodd" d="M87.3407 8.91699H88.5694L86.4794 14.1746H85.4254L83.3257 8.91699H84.5838L85.9576 12.7514L87.3407 8.91699Z" fill="white"/>
<path id="Fill 12" fill-rule="evenodd" clip-rule="evenodd" d="M92.3429 11.921C92.0425 11.8029 91.626 11.7135 91.1718 11.7135C90.4358 11.7135 90.0007 12.0203 90.0007 12.5537V12.5737C90.0007 13.0679 90.4358 13.3445 90.9879 13.3445C91.7617 13.3445 92.3429 12.8999 92.3429 12.2472V11.921ZM92.3125 14.135V13.4924C91.9641 13.9173 91.4325 14.2435 90.6578 14.2435C89.6907 14.2435 88.8397 13.6805 88.8397 12.6329V12.6128C88.8397 11.4866 89.7203 10.9332 90.91 10.9332C91.5288 10.9332 91.9257 11.022 92.3228 11.1508V11.022C92.3228 10.3008 91.8775 9.90526 91.0644 9.90526C90.4938 9.90526 90.0685 10.0332 89.6038 10.2311L89.2847 9.27292C89.8463 9.01579 90.3972 8.83789 91.2291 8.83789C92.7388 8.83789 93.4735 9.64813 93.4735 11.042V14.135H92.3125Z" fill="white"/>
<path id="Fill 13" fill-rule="evenodd" clip-rule="evenodd" d="M96.8499 14.254C95.3309 14.254 94.2084 13.0383 94.2084 11.5458C94.2084 10.0542 95.3309 8.80859 96.859 8.80859C97.8265 8.80859 98.4265 9.17425 98.9006 9.70794L98.1749 10.508C97.8174 10.1232 97.4396 9.85624 96.8499 9.85624C95.9977 9.85624 95.379 10.607 95.379 11.5267C95.379 12.4655 96.0084 13.2162 96.9081 13.2162C97.459 13.2162 97.8656 12.9492 98.2331 12.5635L98.9393 13.2757C98.4362 13.8489 97.8462 14.254 96.8499 14.254Z" fill="white"/>
<path id="Fill 14" fill-rule="evenodd" clip-rule="evenodd" d="M99.7028 14.1348H100.874V8.91695H99.7028V14.1348ZM99.6547 8.11626H100.913V6.98047H99.6547V8.11626Z" fill="white"/>
<path id="Fill 15" fill-rule="evenodd" clip-rule="evenodd" d="M104.008 8.25555L105.034 6.63477L106.098 7.11881L104.917 8.25555H104.008ZM104.453 9.85629C103.515 9.85629 102.915 10.6073 102.915 11.5267C102.915 12.4553 103.563 13.2166 104.473 13.2166C105.42 13.2166 106.02 12.4655 106.02 11.5461C106.02 10.6175 105.372 9.85629 104.453 9.85629ZM104.453 14.2544C102.895 14.2544 101.744 13.0384 101.744 11.5461C101.744 10.0444 102.905 8.80865 104.473 8.80865C106.039 8.80865 107.191 10.0243 107.191 11.5267C107.191 13.0186 106.03 14.2544 104.453 14.2544Z" fill="white"/>
<path id="Fill 16" fill-rule="evenodd" clip-rule="evenodd" d="M109.174 14.1353H108.003V8.91743H109.174V9.72767C109.503 9.23376 109.977 8.80859 110.77 8.80859C111.921 8.80859 112.589 9.5991 112.589 10.8145V14.1353H111.418V11.1706C111.418 10.3606 111.021 9.8957 110.325 9.8957C109.648 9.8957 109.174 10.3797 109.174 11.19V14.1353Z" fill="white"/>
<path id="Fill 17" fill-rule="evenodd" clip-rule="evenodd" d="M67.403 22.0337C67.3261 21.263 66.8811 20.6602 66.1074 20.6602C65.3914 20.6602 64.8883 21.2238 64.7814 22.0337H67.403ZM66.2624 24.1484C66.833 24.1484 67.2389 23.9314 67.6452 23.5266L68.3327 24.1484C67.8486 24.742 67.1808 25.1273 66.242 25.1273C64.7627 25.1273 63.6205 24.0301 63.6205 22.4093C63.6205 20.9075 64.6558 19.6816 66.117 19.6816C67.7417 19.6816 68.5645 20.9864 68.5645 22.4981C68.5645 22.6069 68.5549 22.7055 68.5449 22.8242H64.7914C64.9267 23.6739 65.5074 24.1484 66.2624 24.1484Z" fill="white"/>
<path id="Fill 18" fill-rule="evenodd" clip-rule="evenodd" d="M70.5371 25.0083H69.3671V19.7905H70.5371V20.6007C70.8668 20.1068 71.3402 19.6816 72.133 19.6816C73.2849 19.6816 73.9527 20.4728 73.9527 21.6878V25.0083H72.7821V22.0442C72.7821 21.2331 72.3852 20.7687 71.6889 20.7687C71.0114 20.7687 70.5371 21.2534 70.5371 22.0633V25.0083Z" fill="white"/>
<path id="Fill 19" fill-rule="evenodd" clip-rule="evenodd" d="M82.6879 19.1973H78.8373V21.0851H82.252V22.1913H78.8373V25.0084H77.647V18.0908H82.6879V19.1973Z" fill="white"/>
<path id="Fill 20" fill-rule="evenodd" clip-rule="evenodd" d="M85.5987 20.7296C84.6606 20.7296 84.0606 21.4803 84.0606 22.3991C84.0606 23.3283 84.7087 24.0892 85.6187 24.0892C86.5662 24.0892 87.1662 23.3382 87.1662 22.4198C87.1662 21.4905 86.5184 20.7296 85.5987 20.7296ZM85.5987 25.127C84.0419 25.127 82.8906 23.9113 82.8906 22.4198C82.8906 20.9174 84.0516 19.6816 85.6187 19.6816C87.1856 19.6816 88.3369 20.8973 88.3369 22.3991C88.3369 23.8923 87.1759 25.127 85.5987 25.127Z" fill="white"/>
<path id="Fill 21" fill-rule="evenodd" clip-rule="evenodd" d="M90.31 25.0083H89.1394V19.7905H90.31V20.9664C90.6291 20.1858 91.22 19.6518 92.1197 19.6915V20.9565H92.0519C91.026 20.9565 90.31 21.6388 90.31 23.0219V25.0083Z" fill="white"/>
<path id="Fill 22" fill-rule="evenodd" clip-rule="evenodd" d="M98.775 19.6816C99.8878 19.6816 100.565 20.4034 100.565 21.678V25.0083H99.3937V22.0442C99.3937 21.2136 99.0165 20.7687 98.3587 20.7687C97.7209 20.7687 97.2656 21.2238 97.2656 22.0633V25.0083H96.095V22.0337C96.095 21.2238 95.7081 20.7687 95.0596 20.7687C94.4115 20.7687 93.9665 21.263 93.9665 22.0735V25.0083H92.7959V19.7905H93.9665V20.581C94.2956 20.1167 94.7406 19.6816 95.5243 19.6816C96.259 19.6816 96.7725 20.0476 97.0434 20.601C97.459 20.0476 98.0009 19.6816 98.775 19.6816Z" fill="white"/>
<path id="Fill 23" fill-rule="evenodd" clip-rule="evenodd" d="M104.764 22.795C104.463 22.6763 104.047 22.5875 103.592 22.5875C102.857 22.5875 102.421 22.894 102.421 23.427V23.4471C102.421 23.9413 102.857 24.2178 103.409 24.2178C104.183 24.2178 104.764 23.7726 104.764 23.1206V22.795ZM104.733 25.0083V24.3661C104.385 24.7913 103.853 25.1172 103.079 25.1172C102.112 25.1172 101.26 24.5539 101.26 23.5059V23.4868C101.26 22.3606 102.141 21.8069 103.331 21.8069C103.95 21.8069 104.347 21.8956 104.743 22.0236V21.8956C104.743 21.1739 104.298 20.7793 103.485 20.7793C102.915 20.7793 102.489 20.9072 102.024 21.1048L101.705 20.1466C102.267 19.8898 102.818 19.7109 103.65 19.7109C105.159 19.7109 105.894 20.5218 105.894 21.9147V25.0083H104.733Z" fill="white"/>
<path id="Fill 24" fill-rule="evenodd" clip-rule="evenodd" d="M109.271 25.127C107.752 25.127 106.629 23.9113 106.629 22.4194C106.629 20.9266 107.752 19.6816 109.28 19.6816C110.248 19.6816 110.848 20.0476 111.321 20.581L110.596 21.3814C110.238 20.9963 109.86 20.7296 109.271 20.7296C108.418 20.7296 107.8 21.4803 107.8 22.3991C107.8 23.3382 108.429 24.0889 109.329 24.0889C109.88 24.0889 110.286 23.8222 110.654 23.4369L111.36 24.1481C110.857 24.7219 110.267 25.127 109.271 25.127Z" fill="white"/>
<path id="Fill 25" fill-rule="evenodd" clip-rule="evenodd" d="M112.124 25.0082H113.295V19.7903H112.124V25.0082ZM112.076 18.9899H113.334V17.8535H112.076V18.9899Z" fill="white"/>
<path id="Fill 26" fill-rule="evenodd" clip-rule="evenodd" d="M116.429 19.1273L117.455 17.5068L118.519 17.9915L117.339 19.1273H116.429ZM116.874 20.729C115.936 20.729 115.336 21.48 115.336 22.3985C115.336 23.3277 115.984 24.0886 116.893 24.0886C117.842 24.0886 118.442 23.3376 118.442 22.4192C118.442 21.4899 117.793 20.729 116.874 20.729ZM116.874 25.1267C115.316 25.1267 114.165 23.9107 114.165 22.4192C114.165 20.9168 115.326 19.681 116.893 19.681C118.461 19.681 119.613 20.897 119.613 22.3985C119.613 23.8917 118.451 25.1267 116.874 25.1267Z" fill="white"/>
<path id="Fill 27" fill-rule="evenodd" clip-rule="evenodd" d="M121.584 25.0083H120.414V19.7905H121.584V20.6007C121.913 20.1068 122.387 19.6816 123.181 19.6816C124.332 19.6816 125 20.4728 125 21.6878V25.0083H123.829V22.0442C123.829 21.2331 123.432 20.7687 122.736 20.7687C122.059 20.7687 121.584 21.2534 121.584 22.0633V25.0083Z" fill="white"/>
<path id="Fill 28" fill-rule="evenodd" clip-rule="evenodd" d="M66.6101 30.071H65.227V32.5609H66.6101C67.5098 32.5609 68.0707 32.0568 68.0707 31.316C68.0707 30.4962 67.5007 30.071 66.6101 30.071ZM66.5711 33.6579H65.227V35.8821H64.0364V28.9639H66.7067C68.2836 28.9639 69.2804 29.8734 69.2804 31.2867C69.2804 32.8476 68.0617 33.6579 66.5711 33.6579Z" fill="white"/>
<path id="Fill 29" fill-rule="evenodd" clip-rule="evenodd" d="M71.0015 35.8814H69.8315V30.6636H71.0015V31.8388C71.3212 31.0582 71.9109 30.5248 72.8106 30.5646V31.8296H72.7428C71.7175 31.8296 71.0015 32.5112 71.0015 33.8943V35.8814Z" fill="white"/>
<path id="Fill 30" fill-rule="evenodd" clip-rule="evenodd" d="M75.7709 31.602C74.8321 31.602 74.2321 32.3527 74.2321 33.2721C74.2321 34.2014 74.8809 34.9617 75.7903 34.9617C76.7384 34.9617 77.3384 34.2106 77.3384 33.2922C77.3384 32.3629 76.6899 31.602 75.7709 31.602ZM75.7709 35.9994C74.2134 35.9994 73.0621 34.7844 73.0621 33.2922C73.0621 31.7898 74.2231 30.5547 75.7903 30.5547C77.3578 30.5547 78.509 31.7697 78.509 33.2721C78.509 34.7647 77.3481 35.9994 75.7709 35.9994Z" fill="white"/>
<path id="Fill 31" fill-rule="evenodd" clip-rule="evenodd" d="M82.088 30.7037V31.6915H80.7533V35.8817H79.5823V31.6915H78.9336V30.6932H79.5823V30.3177C79.5823 29.171 80.1433 28.6084 81.1498 28.6084C81.5558 28.6084 81.8364 28.6676 82.097 28.7465V29.7547C81.8652 29.6751 81.6627 29.6258 81.4105 29.6258C80.9655 29.6258 80.733 29.8734 80.733 30.4166V30.7037H82.088Z" fill="white"/>
<path id="Fill 32" fill-rule="evenodd" clip-rule="evenodd" d="M85.9576 32.9062C85.8801 32.136 85.4345 31.5326 84.6607 31.5326C83.9454 31.5326 83.4417 32.0962 83.3354 32.9062H85.9576ZM84.8157 35.0212C85.387 35.0212 85.7929 34.8038 86.1985 34.399L86.886 35.0212C86.402 35.6144 85.7348 35.9997 84.7961 35.9997C83.3161 35.9997 82.1748 34.9025 82.1748 33.2817C82.1748 31.7799 83.2098 30.5547 84.6704 30.5547C86.2957 30.5547 87.1185 31.8588 87.1185 33.3711C87.1185 33.4799 87.1089 33.5786 87.0982 33.6967H83.3454C83.4807 34.5464 84.0607 35.0212 84.8157 35.0212Z" fill="white"/>
<path id="Fill 33" fill-rule="evenodd" clip-rule="evenodd" d="M89.6716 35.9805C88.9466 35.9805 88.1432 35.7131 87.5048 35.1992L88.0266 34.3886C88.5791 34.8144 89.1785 35.0315 89.701 35.0315C90.2038 35.0315 90.4938 34.8144 90.4938 34.4682V34.4485C90.4938 34.043 89.9523 33.9046 89.3529 33.7175C88.5979 33.4998 87.7569 33.1835 87.7569 32.1851V32.1654C87.7569 31.1776 88.5588 30.5742 89.5751 30.5742C90.2135 30.5742 90.9101 30.8018 91.4519 31.1671L90.9882 32.0168C90.4938 31.711 89.9719 31.5232 89.5466 31.5232C89.0919 31.5232 88.8301 31.7402 88.8301 32.0467V32.0664C88.8301 32.4426 89.3816 32.6004 89.9816 32.7974C90.7263 33.0355 91.5679 33.3804 91.5679 34.3196V34.3403C91.5679 35.4359 90.736 35.9805 89.6716 35.9805Z" fill="white"/>
<path id="Fill 34" fill-rule="evenodd" clip-rule="evenodd" d="M92.448 35.8815H93.6192V30.6637H92.448V35.8815ZM92.3999 29.8633H93.6576V28.7266H92.3999V29.8633Z" fill="white"/>
<path id="Fill 35" fill-rule="evenodd" clip-rule="evenodd" d="M97.1978 31.602C96.259 31.602 95.659 32.3527 95.659 33.2721C95.659 34.2014 96.3078 34.9617 97.2171 34.9617C98.1653 34.9617 98.7653 34.2106 98.7653 33.2922C98.7653 32.3629 98.1168 31.602 97.1978 31.602ZM97.1978 35.9994C95.6403 35.9994 94.4884 34.7844 94.4884 33.2922C94.4884 31.7898 95.65 30.5547 97.2172 30.5547C98.7846 30.5547 99.9359 31.7697 99.9359 33.2721C99.9359 34.7647 98.775 35.9994 97.1978 35.9994Z" fill="white"/>
<path id="Fill 36" fill-rule="evenodd" clip-rule="evenodd" d="M101.919 35.8814H100.748V30.6635H101.919V31.4731C102.248 30.9792 102.721 30.5547 103.515 30.5547C104.666 30.5547 105.334 31.3452 105.334 32.5602V35.8814H104.163V32.9167C104.163 32.1061 103.766 31.6412 103.07 31.6412C102.393 31.6412 101.919 32.1258 101.919 32.9357V35.8814Z" fill="white"/>
<path id="Fill 37" fill-rule="evenodd" clip-rule="evenodd" d="M109.523 33.6674C109.223 33.5493 108.807 33.4599 108.352 33.4599C107.616 33.4599 107.181 33.7664 107.181 34.3V34.3195C107.181 34.8143 107.616 35.0909 108.168 35.0909C108.943 35.0909 109.523 34.6457 109.523 33.9936V33.6674ZM109.493 35.8814V35.2385C109.145 35.6637 108.613 35.9896 107.839 35.9896C106.871 35.9896 106.02 35.4263 106.02 34.3783V34.3592C106.02 33.233 106.901 32.6793 108.09 32.6793C108.71 32.6793 109.106 32.7681 109.503 32.8966V32.7681C109.503 32.0463 109.058 31.6517 108.245 31.6517C107.675 31.6517 107.249 31.7796 106.784 31.9772L106.465 31.019C107.026 30.7622 107.578 30.584 108.41 30.584C109.919 30.584 110.654 31.3942 110.654 32.7878V35.8814H109.493Z" fill="white"/>
<path id="Fill 38" fill-rule="evenodd" clip-rule="evenodd" d="M111.727 35.8815H112.898V28.667H111.727V35.8815Z" fill="white"/>
<path id="Fill 39" fill-rule="evenodd" clip-rule="evenodd" d="M0.307873 0.0371094H0.000244141V0.350893V0.694272L0.645828 0.0371094H0.307873Z" fill="#93C01F"/>
<path id="Fill 40" fill-rule="evenodd" clip-rule="evenodd" d="M1.84015 0.0371094H1.50188L0 1.56625V1.90994V2.25428L2.1781 0.0371094H1.84015Z" fill="#93C01F"/>
<path id="Fill 41" fill-rule="evenodd" clip-rule="evenodd" d="M3.37375 0.0371094H3.035L0 3.12816V3.47313V3.81715L3.71125 0.0371094H3.37375Z" fill="#93C01F"/>
<path id="Fill 42" fill-rule="evenodd" clip-rule="evenodd" d="M4.90499 0.0371094H4.56718L0 4.68944V5.0325V5.3762L5.24281 0.0371094H4.90499Z" fill="#93C01F"/>
<path id="Fill 43" fill-rule="evenodd" clip-rule="evenodd" d="M6.43886 0.0371094H6.10074L0.00012207 6.25135V6.59473V6.93843L6.77824 0.0371094H6.43886Z" fill="#93C01F"/>
<path id="Fill 44" fill-rule="evenodd" clip-rule="evenodd" d="M7.63429 0.0371094L0.810547 6.98617H1.14898H1.48836L7.6471 0.713366V0.367759V0.0371094H7.63429Z" fill="#93C01F"/>
<path id="Fill 45" fill-rule="evenodd" clip-rule="evenodd" d="M2.34241 6.98642H2.68116H3.02022L7.64709 2.27363V1.92961V1.58496L2.34241 6.98642Z" fill="#93C01F"/>
<path id="Fill 46" fill-rule="evenodd" clip-rule="evenodd" d="M3.87537 6.98601H4.21412H4.55255L7.64724 3.83481V3.48921V3.14551L3.87537 6.98601Z" fill="#93C01F"/>
<path id="Fill 47" fill-rule="evenodd" clip-rule="evenodd" d="M5.4082 6.98657H5.74772H6.08599L7.64821 5.39665V5.05105V4.70703L5.4082 6.98657Z" fill="#93C01F"/>
<path id="Fill 48" fill-rule="evenodd" clip-rule="evenodd" d="M6.94299 6.98586H7.28126H7.62015L7.64735 6.95786V6.61289V6.26855L6.94299 6.98586Z" fill="#93C01F"/>
</g>
</svg>
