<svg width="612" height="92" viewBox="0 0 612 92" fill="none" xmlns="http://www.w3.org/2000/svg">
<path d="M51.6366 40.4706L16.0171 89.8537C15.4093 90.6634 14.4988 91.0678 13.4873 91.0678C13.0828 91.0678 12.5767 90.9669 12.1715 90.7643C10.8558 90.1572 10.1479 88.6388 10.5523 87.2221L19.154 55.4469H3.87363C2.76048 55.4469 1.74824 54.8399 1.24282 53.8277C0.736716 52.8154 0.736716 51.7022 1.34376 50.6908L32.9157 1.40895C33.7253 0.19483 35.2429 -0.31127 36.5586 0.19483C37.8743 0.700949 38.684 2.11771 38.4814 3.53426L33.5228 35.7142H49.2078C50.3209 35.7142 51.434 36.3213 51.9401 37.3335C52.4455 38.345 52.2429 39.5598 51.6359 40.4703L51.6366 40.4706Z" fill="#FFC700"/>
<path d="M90.2659 61.0463C87.0227 61.0463 84.5904 59.3393 83.4809 56.8643L82.8408 60.5342H80.0671V29.5965H83.6943V42.9104C84.8038 40.5207 87.1508 38.6858 90.4792 38.6858C95.6853 38.6858 99.0564 43.3371 99.0564 49.866C99.0564 56.5229 95.6 61.0463 90.2659 61.0463ZM89.2844 57.8458C92.9969 57.8458 95.2159 54.7307 95.2159 49.866C95.2159 45.0867 93.1249 41.8862 89.3271 41.8862C85.7426 41.8862 83.6089 44.7453 83.6089 49.3966V50.5061C83.6089 54.9441 85.6999 57.8458 89.2844 57.8458ZM103.417 69.0687C102.777 69.0687 102.137 69.026 101.454 68.898V65.6976C102.009 65.7829 102.521 65.7829 102.991 65.7829C105.551 65.7829 106.874 64.6308 107.855 61.857L108.41 60.2781L99.9182 39.1978H103.972L109.434 54.0479C109.818 55.1148 110.032 55.9682 110.16 56.5656H110.245C110.373 55.9682 110.629 55.1148 110.97 54.0479L115.92 39.1978H119.846L111.525 61.8997C109.562 67.2765 107.002 69.0687 103.417 69.0687Z" fill="#8C8C8C"/>
<path d="M611.056 75.6645H601.453V74.1732C601.453 66.6867 601.453 59.1927 601.453 51.6912C601.486 50.808 601.444 49.9238 601.329 49.0475C600.595 44.4608 597.59 41.9301 593.059 42.0205C590.989 42.0457 588.997 42.8153 587.447 44.1886C585.898 45.5619 584.894 47.4471 584.62 49.4994C584.517 50.3769 584.464 51.2595 584.462 52.1431C584.462 59.4111 584.462 66.6717 584.462 73.9247V75.6306H575.029V74.0263C575.029 66.6717 575.029 59.3396 575.029 51.9736C575.048 50.7623 574.954 49.5519 574.746 48.3584C574.491 46.5812 573.596 44.9583 572.229 43.7936C570.863 42.6289 569.119 42.0025 567.324 42.0318C565.423 41.891 563.532 42.4018 561.961 43.4799C560.39 44.5581 559.233 46.1393 558.681 47.963C558.348 49.2694 558.188 50.6141 558.207 51.9623C558.207 59.2718 558.207 66.5813 558.207 73.8908V75.6193H548.66V34.0896H557.935V39.7384C561.133 35.2194 565.324 32.7678 570.837 32.8695C573.438 32.8031 576.001 33.5079 578.202 34.8951C580.404 36.2822 582.145 38.2897 583.208 40.6648L584.146 39.2978C587.817 34.0445 592.946 32.09 599.137 33.0616C601.814 33.3943 604.327 34.5314 606.345 36.3226C608.362 38.1138 609.788 40.4749 610.435 43.0938C610.889 44.7075 611.113 46.3771 611.101 48.0534C611.158 56.9332 611.101 65.8243 611.101 74.7155C611.124 74.9866 611.09 75.2578 611.056 75.6645Z" fill="#8C8C8C"/>
<path d="M224.308 57.9613H192.111C192.201 62.3334 196.065 66.8524 200.652 68.2081C206.978 70.0157 211.757 67.8579 216.039 61.215C218.134 63.4389 220.989 64.7939 224.037 65.0109C222.402 69.1347 219.327 72.5261 215.383 74.5573C203.306 80.6467 187.14 76.0712 183.276 60.6388C180.711 50.3016 185.332 39.5464 194.28 35.0726C205.577 29.4238 222.874 34.3721 224.331 52.0188C224.489 53.8942 224.308 55.8374 224.308 57.9613ZM214.751 49.9062C214.536 45.037 209.633 41.0828 203.792 40.9924C197.951 40.9021 192.901 44.9692 192.495 49.9062H214.751Z" fill="#8C8C8C"/>
<path d="M401.126 61.2034C403.224 63.4223 406.079 64.7729 409.125 64.988C407.839 68.4232 405.487 71.3568 402.414 73.3595C394.449 78.2513 386.123 78.7597 378.046 73.9469C369.968 69.1342 367.019 61.5197 367.878 52.4817C368.702 43.9973 372.939 37.5916 381.005 34.4057C392.732 29.7059 408.232 35.6371 409.441 52.2218C409.543 53.7018 409.441 55.2044 409.441 56.6844C409.441 57.8141 409.012 57.9723 408.018 57.9723C398.257 57.9723 388.507 57.9723 378.757 57.9723H377.232C377.164 62.2653 381.107 66.9538 385.807 68.2643C392.156 69.9928 397.161 67.7333 401.126 61.2034ZM377.548 49.9059H399.838C399.703 45.2174 395.026 41.3085 389.287 40.9921C383.547 40.6758 378.328 44.6073 377.548 49.9059Z" fill="#8C8C8C"/>
<path d="M365.528 44.4046C362.159 44.5799 358.959 45.9358 356.49 48.2344C356.312 48.0306 356.154 47.8114 356.015 47.5792C352.445 40.4618 340.606 39.6709 335.94 47.2742C334.471 49.4826 333.668 52.0665 333.626 54.7183C333.584 57.3701 334.305 59.9782 335.702 62.2321C336.689 64.0781 338.179 65.6071 339.998 66.6427C341.817 67.6782 343.892 68.178 345.983 68.0842C348.118 68.1901 350.237 67.6634 352.074 66.5701C353.911 65.4768 355.384 63.8655 356.309 61.9383C356.458 61.6742 356.62 61.4178 356.795 61.1701C359.299 63.3236 362.445 64.5904 365.743 64.774C364.93 66.9559 363.689 68.9533 362.093 70.6487C358.162 74.9869 353.123 76.7268 347.407 77.0544C344.071 77.3582 340.711 76.857 337.608 75.593C334.506 74.3289 331.753 72.3389 329.579 69.7901C318.643 57.3063 324.574 36.5867 341.283 33.3104C349.542 31.6836 357.1 33.3782 362.816 40.1454C363.807 41.5081 364.712 42.9305 365.528 44.4046V44.4046Z" fill="#8C8C8C"/>
<path d="M145.227 64.1859C148.246 64.2421 151.179 63.1798 153.462 61.2033C153.82 62.231 154.242 63.2347 154.728 64.2085C155.935 66.1444 157.775 67.6022 159.936 68.3335C162.097 69.0647 164.444 69.0243 166.579 68.2191C167.484 67.8881 168.266 67.2889 168.821 66.5016C169.376 65.7143 169.678 64.7764 169.686 63.8131C169.726 62.9135 169.448 62.0286 168.9 61.3137C168.353 60.5989 167.571 60.0998 166.692 59.9041C164.026 59.0681 161.292 58.4806 158.625 57.6446C156.929 57.1543 155.271 56.5388 153.666 55.8031C145.599 52.0072 145.916 42.7658 150.333 37.9757C154.491 33.4567 159.778 32.2704 165.641 32.9935C168.166 33.1768 170.601 34.0095 172.709 35.411C174.817 36.8124 176.527 38.735 177.673 40.9921C178.063 41.8542 178.406 42.7367 178.701 43.6357C175.622 43.6148 172.652 44.7799 170.409 46.8894C170.251 46.5053 170.126 46.2341 170.025 45.963C169.655 44.9544 169.088 44.0301 168.355 43.2447C167.622 42.4594 166.739 41.829 165.759 41.3908C164.778 40.9526 163.719 40.7156 162.646 40.6937C161.572 40.6717 160.504 40.8654 159.507 41.2632C158.905 41.5091 158.347 41.8526 157.857 42.28C157.401 42.6419 157.045 43.1153 156.825 43.6546C156.605 44.1939 156.527 44.7808 156.6 45.3588C156.673 45.9367 156.893 46.4862 157.24 46.9542C157.587 47.4222 158.048 47.7928 158.58 48.0305C160.881 48.9056 163.245 49.6043 165.652 50.1205C168.812 50.7321 171.823 51.9482 174.521 53.7018C180.396 57.961 180.339 67.0329 175.651 72.0377C174.201 73.5658 172.464 74.7926 170.538 75.6476C168.613 76.5026 166.538 76.9689 164.432 77.0199C158.716 77.3362 153.485 76.1048 149.248 71.9925C147.088 69.9014 145.675 67.1585 145.227 64.1859V64.1859Z" fill="#8C8C8C"/>
<path d="M282.683 65.225C282.909 64.6376 283.146 64.0953 283.361 63.4626C286.66 54.1309 289.97 44.8104 293.223 35.4674C293.306 35.0218 293.561 34.6268 293.934 34.3686C294.306 34.1105 294.766 34.01 295.212 34.0891C298.138 34.1682 301.075 34.0891 304.25 34.0891L288.637 75.8899C284.694 75.8899 280.728 75.8899 276.865 75.8334C276.492 75.8334 275.972 75.1668 275.803 74.7036C271.954 64.5585 268.128 54.4096 264.324 44.2569C263.082 40.9693 261.85 37.6704 260.506 34.0891H264.562C266.381 34.0891 268.211 34.0891 270.018 34.0891C270.211 34.0499 270.409 34.0497 270.601 34.0885C270.794 34.1272 270.977 34.2042 271.139 34.3148C271.301 34.4254 271.439 34.5674 271.546 34.7323C271.652 34.8973 271.724 35.082 271.758 35.2753C275.068 44.754 278.435 54.21 281.79 63.666C281.971 64.1857 282.174 64.6941 282.367 65.2024L282.683 65.225Z" fill="#8C8C8C"/>
<path d="M427.665 34.0897H435.178V42.7097H427.665V75.6984H417.95V42.8226H412.301V34.0897H417.769C417.882 31.8302 417.927 29.7627 418.108 27.684C418.341 25.1186 419.219 22.6536 420.658 20.5174C422.098 18.3812 424.054 16.6429 426.344 15.4634C428.634 14.284 431.185 13.7015 433.76 13.7701C436.335 13.8386 438.851 14.5559 441.076 15.8555C441.858 16.3634 442.613 16.9141 443.335 17.5049C439.833 20.8942 439.607 21.2218 438.692 24.2834C437.271 23.7636 435.803 23.3852 434.308 23.1537C430.49 22.9164 428.117 25.063 427.699 28.9945C427.598 30.6911 427.586 32.3919 427.665 34.0897V34.0897Z" fill="#8C8C8C"/>
<path d="M526.054 75.63H516.439V34.0891H525.749V40.235C528.415 35.8515 531.951 33.0723 537.295 33.287C540.108 33.4 542.751 33.9761 544.83 36.2921C542.43 38.4207 540.805 41.2857 540.209 44.4376C538.405 43.3875 536.304 42.9625 534.233 43.2288C532.945 43.2913 531.697 43.6999 530.622 44.4117C529.546 45.1234 528.682 46.112 528.121 47.2733C526.76 49.9372 526.062 52.8905 526.088 55.882C526.088 61.9262 526.088 67.9703 526.088 74.0258L526.054 75.63Z" fill="#8C8C8C"/>
<path d="M240.272 75.7882H230.76V34.1908H239.933V40.4722C242.023 37.1734 244.452 34.4055 248.474 33.6937C252.496 32.982 255.998 33.4113 259.117 36.3938C256.687 38.5224 255.047 41.4082 254.462 44.5845C252.663 43.5312 250.564 43.1059 248.497 43.3757C247.185 43.436 245.914 43.8543 244.823 44.5852C243.732 45.316 242.861 46.3316 242.306 47.5219C240.94 50.2883 240.251 53.3395 240.295 56.4243C240.238 62.3329 240.295 68.2528 240.295 74.1614L240.272 75.7882Z" fill="#8C8C8C"/>
<path d="M308.689 34.0107C313.095 34.9484 313.841 34.9484 318.112 34.0107V75.755H308.689V34.0107Z" fill="#8C8C8C"/>
<path d="M313.435 28.6998C311.767 28.7457 310.149 28.1321 308.93 26.9921C307.712 25.8521 306.993 24.2777 306.928 22.6105C307.032 20.9834 307.749 19.4562 308.934 18.3362C310.119 17.2161 311.684 16.5863 313.314 16.5734C314.945 16.5606 316.52 17.1655 317.722 18.2667C318.924 19.3679 319.665 20.8835 319.796 22.5088C319.79 23.3345 319.62 24.1508 319.296 24.9104C318.972 25.67 318.501 26.3577 317.909 26.9336C317.318 27.5096 316.617 27.9623 315.849 28.2655C315.081 28.5687 314.261 28.7163 313.435 28.6998V28.6998Z" fill="#8C8C8C"/>
<path d="M444.487 41.6813C453.92 32.824 467.726 27.5142 478.639 36.9476C487.395 44.5282 494.015 67.7446 476.753 69.0777C469.76 69.62 465.263 63.2256 468.404 56.4697C471.183 50.4594 477.758 47.0137 483.091 43.9634C494.813 37.4767 507.395 32.6841 520.463 29.7285C525.321 28.5987 523.344 20.6905 518.474 21.8767C502.85 25.6275 487.417 31.3553 473.725 40.2578C463.964 46.6183 453.322 60.2996 463.399 71.7326C472.143 81.6518 489.575 77.178 494.219 64.9541C499.02 52.2331 491.044 35.7614 480.865 28.7004C466.924 19.0411 450.509 25.1869 439.064 35.9421C435.336 39.4444 440.77 45.1609 444.487 41.6813Z" fill="#8C8C8C"/>
</svg>
